<svg width="32" height="34" viewBox="0 0 32 34" fill="none" xmlns="http://www.w3.org/2000/svg">
<path fill-rule="evenodd" clip-rule="evenodd" d="M6.83569 0.695297V1.39059H3.41784H0V15.5746V29.7587H6.16693H12.3338L12.3157 28.3507L12.2975 26.9427L7.52261 26.9249L2.74768 26.9071V19.1202V11.3333H15.0452H27.3428V15.5746V19.816H28.7166H30.0904L30.0903 12.8456C30.0902 9.01188 30.0703 4.86617 30.046 3.63292L30.0018 1.39059H26.6282H23.2547V0.695297V0H21.8809H20.5071V0.695297V1.39059H18.4631H16.4191V0.695297V0H15.0452H13.6714V0.695297V1.39059H11.6274H9.58337V0.695297V0H8.20953H6.83569V0.695297ZM6.83569 4.93661V5.6319H8.20953H9.58337V4.93661V4.24131H11.6274H13.6714V4.93661V5.6319H15.0452H16.4191V4.93661V4.24131H18.4631H20.5071V4.93661V5.6319H21.8809H23.2547V4.93661V4.24131H25.2987H27.3428V6.36196V8.48262H15.0452H2.74768V6.36196V4.24131H4.79168H6.83569V4.93661ZM6.85103 15.592L6.8692 17L8.22628 17.0188L9.58337 17.0376V15.6109V14.184H8.20812H6.83294L6.85103 15.592ZM12.331 15.6109V17.0376L13.6881 17.0188L15.0452 17L15.0634 15.592L15.0815 14.184H13.7063H12.331V15.6109ZM17.7747 15.592L17.7929 17L19.15 17.0188L20.5071 17.0376V15.6109V14.184H19.1318H17.7566L17.7747 15.592ZM18.8652 22.3885L14.5095 26.908H16.1344H17.7594V30.454V34H23.2547H28.7501V30.454V26.908H30.3751H32L27.6443 22.3885C25.2487 19.9029 23.2734 17.8691 23.2547 17.8691C23.2361 17.8691 21.2608 19.9029 18.8652 22.3885ZM6.83569 21.2413V22.6667H8.20953H9.58337V21.2413V19.816H8.20953H6.83569V21.2413ZM12.331 21.2398V22.6667H13.7063H15.0815L15.0634 21.2587L15.0452 19.8507L13.6881 19.8319L12.331 19.8131V21.2398ZM24.2944 24.0416C23.7226 24.0522 22.785 24.0522 22.2108 24.0416L21.1668 24.0225L22.1881 22.9221L23.2094 21.8217L24.2718 22.9221L25.3341 24.0225L24.2944 24.0416ZM25.9689 29.0634V31.184H23.2547H20.5406L20.5228 29.1338C20.513 28.0061 20.5197 27.0436 20.5377 26.9949C20.5636 26.9249 21.1334 26.9102 23.2697 26.9246L25.9689 26.9427V29.0634Z" fill="url(#paint0_linear_0_103)"/>
<defs>
<linearGradient id="paint0_linear_0_103" x1="7.48936" y1="26.766" x2="40.2793" y2="1.94287" gradientUnits="userSpaceOnUse">
<stop stop-color="#63AFCD"/>
<stop offset="1" stop-color="#FF374F"/>
</linearGradient>
</defs>
</svg>
