<svg width="20" height="14" viewBox="0 0 20 14" fill="none" xmlns="http://www.w3.org/2000/svg">
<path fill-rule="evenodd" clip-rule="evenodd" d="M1.41154 0.0382839C0.74104 0.1694 0.171072 0.748668 0.0411277 1.43109C-0.0137092 1.71891 -0.0137092 12.2758 0.0411277 12.5636C0.174158 13.2622 0.74065 13.8263 1.44212 13.9588C1.73287 14.0137 18.2671 14.0137 18.5579 13.9588C19.2593 13.8263 19.8258 13.2622 19.9589 12.5636C20.0137 12.2758 20.0137 1.71891 19.9589 1.43109C19.8258 0.732527 19.2593 0.168389 18.5579 0.0359114C18.2964 -0.0134857 1.6644 -0.011191 1.41154 0.0382839ZM14.5502 4.57154C12.2146 6.88495 11.0443 8.01747 10.8983 8.10561C10.3519 8.43544 9.64809 8.43544 9.10167 8.10561C8.95568 8.01747 7.78543 6.88495 5.44979 4.57154L2.01272 1.16714H10H17.9873L14.5502 4.57154ZM4.70754 5.47795L6.23059 6.9974L4.31696 8.90576C3.26444 9.95535 2.12649 11.0776 1.78814 11.3995L1.17298 11.985V6.99721V2.00946L2.17871 2.98398C2.73185 3.51996 3.86983 4.64225 4.70754 5.47795ZM18.8175 9.49639L18.8075 11.9954L16.2883 9.49557L13.7691 6.99577L16.2883 4.50075L18.8075 2.00573L18.8175 4.50156C18.8231 5.87426 18.8231 8.1219 18.8175 9.49639ZM7.48153 8.24427C8.18835 8.9536 8.59787 9.23598 9.17979 9.41529C9.42499 9.49086 9.55865 9.50557 10 9.50557C10.6005 9.50557 10.9137 9.43275 11.367 9.18791C11.7028 9.00654 11.8801 8.86208 12.4493 8.30634L12.9262 7.84073L13.8944 8.77787C14.4269 9.29328 15.5656 10.4163 16.4248 11.2733L17.9869 12.8317L9.9998 12.83L2.01272 12.8282L4.5249 10.3406C5.90664 8.97247 7.04939 7.85306 7.06439 7.85306C7.07939 7.85306 7.2671 8.0291 7.48153 8.24427Z" fill="white"/>
</svg>
