<svg width="32" height="32" viewBox="0 0 32 32" fill="none" xmlns="http://www.w3.org/2000/svg">
<path fill-rule="evenodd" clip-rule="evenodd" d="M15.1414 0.0332784C11.3941 0.398299 8.18867 2.99721 7.10459 6.54941C6.99464 6.90972 6.86977 7.3998 6.82713 7.63845L6.74955 8.07245L6.3832 8.15054C4.827 8.48222 3.4482 9.23807 2.32134 10.3773C0.308068 12.4126 -0.448773 15.2179 0.260255 18.0172C0.611105 19.4024 1.29318 20.5735 2.37831 21.6535C3.368 22.6385 4.19294 23.1506 5.4907 23.5855C5.86118 23.7097 6.20778 23.8113 6.26095 23.8113C6.33428 23.8113 6.42042 23.4968 6.61756 22.5087L6.87749 21.2061L6.47988 21.0971C5.094 20.717 3.8447 19.6663 3.20324 18.3412C2.77161 17.4495 2.68494 17.0563 2.68357 15.9828C2.68252 15.2196 2.70751 14.9784 2.83218 14.5454C3.25419 13.0794 4.28137 11.8483 5.62446 11.1987C6.50944 10.7707 6.83269 10.7023 8.15904 10.6624L9.32004 10.6275V9.86421C9.32004 7.73842 9.80262 6.31961 11.012 4.88972C11.4191 4.40849 12.2545 3.75306 12.869 3.43291C16.8786 1.34361 21.6787 3.66135 22.5404 8.10285C22.6642 8.74098 22.6369 9.9691 22.477 10.9506C22.3996 11.4256 22.3363 11.8456 22.3363 11.8841C22.3363 11.931 22.719 11.954 23.499 11.954C24.1385 11.954 24.9063 11.9847 25.2053 12.0222C28.0123 12.3747 29.8686 15.0865 29.1723 17.8171C29.1172 18.0333 28.95 18.4599 28.8008 18.7652C28.5816 19.2133 28.4149 19.4355 27.9348 19.9189C27.4471 20.4099 27.24 20.5664 26.7841 20.7886C26.3158 21.0169 26.0558 21.1018 25.2426 21.2922C25.195 21.3034 25.2183 21.7178 25.316 22.5952C25.3947 23.3028 25.4703 23.8913 25.4839 23.9028C25.5502 23.9591 26.7573 23.6683 27.2911 23.4675C30.327 22.3254 32.2981 19.142 31.963 15.9224C31.7734 14.1007 31.0158 12.5601 29.6889 11.298C28.592 10.2547 27.4607 9.68485 25.9338 9.40669L25.3124 9.29349L25.272 8.64206C25.1352 6.43602 24.1903 4.37704 22.5666 2.7467C21.4534 1.62897 20.2818 0.910325 18.8043 0.438981C17.6958 0.0853588 16.2502 -0.0747474 15.1414 0.0332784ZM14.6835 13.9848V14.6399H13.9967H13.31V15.9828V17.3258H13.9967H14.6835V18.0815V18.8372L14.3916 18.9625C14.231 19.0315 13.9444 19.1926 13.7547 19.3205C13.565 19.4484 13.3835 19.5531 13.3513 19.5531C13.2518 19.5531 12.1326 18.8915 12.1326 18.8328C12.1326 18.8022 12.2798 18.5221 12.4596 18.2102C12.6395 17.8982 12.7867 17.6341 12.7867 17.6233C12.7867 17.5867 10.5777 16.3431 10.5127 16.3431C10.4772 16.3431 10.2965 16.6066 10.111 16.9285L9.77365 17.5139L9.2146 17.1906C8.90718 17.0127 8.63273 16.8672 8.60467 16.8672C8.57661 16.8672 8.25872 17.3798 7.89813 18.0063L7.2426 19.1455L7.7906 19.4535C8.09193 19.6229 8.35553 19.7891 8.37633 19.8228C8.39713 19.8565 8.28155 20.1117 8.11953 20.3901C7.85031 20.8526 7.83442 20.9034 7.93475 20.9817C8.07322 21.0896 10.075 22.239 10.1246 22.239C10.1447 22.239 10.2827 22.0187 10.4311 21.7493C10.5796 21.4799 10.7231 21.2459 10.7499 21.2293C10.7767 21.2127 11.0693 21.352 11.4 21.5389L12.0015 21.8787L12.0016 22.6447L12.0018 23.4105L11.3841 23.7747C11.0443 23.975 10.7507 24.1388 10.7317 24.1388C10.7127 24.1388 10.5614 23.9032 10.3956 23.6153C10.2297 23.3273 10.0717 23.0778 10.0444 23.0609C10.0037 23.0357 8.44756 23.8939 7.89387 24.2469L7.74324 24.3429L7.98649 24.7813C8.12032 25.0225 8.26978 25.282 8.31864 25.3581C8.40314 25.4896 8.37875 25.513 7.82127 25.8353L7.23502 26.1741L7.863 27.2691C8.20836 27.8714 8.51336 28.3899 8.54076 28.4214C8.5681 28.4529 8.84838 28.3288 9.16345 28.1457L9.73643 27.8127L10.0231 28.3178C10.1808 28.5955 10.336 28.8494 10.3679 28.882C10.4316 28.9469 12.6559 27.7001 12.6559 27.5995C12.6559 27.5664 12.52 27.3033 12.3539 27.0149C12.1878 26.7265 12.0627 26.4801 12.076 26.4672C12.0891 26.4543 12.3866 26.2782 12.7369 26.0758L13.3739 25.7079L13.6872 25.9224C13.8594 26.0404 14.155 26.2087 14.344 26.2964L14.6875 26.4559L14.6691 27.2135L14.6508 27.9711L13.9804 27.9898L13.31 28.0085V29.3141V30.6197L13.9804 30.6384L14.6508 30.657L14.6695 31.3285L14.6881 32H15.9917H17.2953L17.3139 31.3285L17.3326 30.657L18.003 30.6384L18.6734 30.6197V29.3141V28.0085L18.003 27.9898L17.3326 27.9711L17.3142 27.2071L17.2958 26.4431L17.6593 26.2765C17.8592 26.1848 18.1513 26.0174 18.3084 25.9044C18.6328 25.671 18.5361 25.6474 19.4373 26.1804L19.9722 26.4966L19.6742 27.0235C19.5103 27.3133 19.3873 27.5601 19.4009 27.5721C19.469 27.6319 21.6358 28.8555 21.6736 28.8555C21.6977 28.8555 21.8108 28.6861 21.925 28.4788C22.3114 27.7777 22.243 27.8009 22.8608 28.1604C23.2829 28.4061 23.4127 28.4553 23.4568 28.3865C23.6848 28.0309 24.691 26.2421 24.691 26.1924C24.691 26.1582 24.4711 26.0048 24.2022 25.8516C23.9333 25.6984 23.6994 25.5504 23.6824 25.5228C23.6653 25.4953 23.797 25.2174 23.975 24.9055C24.153 24.5935 24.2986 24.3103 24.2986 24.2762C24.2986 24.2421 23.8791 23.9723 23.3665 23.6766C22.8539 23.381 22.344 23.0849 22.2336 23.0185L22.0328 22.8979L21.6799 23.5205C21.4859 23.8629 21.2953 24.1347 21.2564 24.1245C21.2176 24.1144 20.9074 23.9463 20.5673 23.7511L19.9489 23.3961L19.9543 22.6513L19.9596 21.9065L20.6216 21.5235L21.2836 21.1404L21.5999 21.6976C21.7739 22.004 21.9394 22.2551 21.9677 22.2555C22.0384 22.2565 24.2332 20.9911 24.2332 20.9494C24.2332 20.931 24.0874 20.6678 23.9092 20.3646L23.5852 19.8133L24.1079 19.5092C24.3954 19.3419 24.645 19.1816 24.6626 19.1531C24.698 19.0958 23.4417 16.873 23.3719 16.8694C23.3479 16.8682 23.1042 16.9999 22.8304 17.162C22.5566 17.3242 22.3096 17.4568 22.2816 17.4568C22.2535 17.4568 22.087 17.2081 21.9116 16.9041C21.6198 16.3983 21.5813 16.3575 21.4576 16.4232C21.3111 16.501 19.3013 17.66 19.2847 17.6762C19.2791 17.6816 19.421 17.9335 19.6 18.236C19.867 18.6873 19.9099 18.8005 19.839 18.8676C19.7915 18.9126 19.4901 19.0983 19.169 19.2803L18.5854 19.6112L18.3904 19.4469C18.2832 19.3565 17.9939 19.181 17.7477 19.0568L17.2999 18.8309V18.0783V17.3258H17.9867H18.6734V15.9828V14.6399H17.9867H17.2999V13.9848V13.3297H15.9917H14.6835V13.9848ZM16.5007 21.4236C16.8114 21.5536 17.0803 21.8099 17.2473 22.1354C17.444 22.5184 17.3929 23.1244 17.1327 23.4952C16.5782 24.2855 15.4058 24.2873 14.8529 23.4987C14.5905 23.1242 14.5386 22.5199 14.7361 22.1354C15.0873 21.4511 15.8404 21.1474 16.5007 21.4236Z" fill="url(#paint0_linear_0_83)"/>
<defs>
<linearGradient id="paint0_linear_0_83" x1="7.48936" y1="25.1915" x2="38.8085" y2="4.16396e-07" gradientUnits="userSpaceOnUse">
<stop stop-color="#63AFCD"/>
<stop offset="1" stop-color="#FF374F"/>
</linearGradient>
</defs>
</svg>
