<svg width="18" height="18" viewBox="0 0 18 18" fill="none" xmlns="http://www.w3.org/2000/svg">
<path fill-rule="evenodd" clip-rule="evenodd" d="M3.69675 0.0230054C2.03067 0.286681 0.612869 1.52313 0.153592 3.11297C-0.0266222 3.73685 -0.0457126 4.39959 0.0829864 5.56523C0.657342 10.7669 4.09754 15.214 8.99968 17.0919C10.3112 17.5943 11.6559 17.8805 13.1737 17.9804C14.2029 18.0481 14.8123 17.9465 15.5621 17.5824C16.8755 16.9447 17.786 15.6922 17.9766 14.261C18.053 13.6875 17.9362 12.8538 17.7169 12.4067C17.5101 11.9853 17.0814 11.6095 16.6501 11.4715C16.4387 11.4039 12.4524 10.7865 12.2272 10.7865C11.8029 10.7865 11.3359 10.9944 10.9821 11.3408C10.8616 11.4589 10.7312 11.6013 10.6924 11.6574L10.6218 11.7594L10.2161 11.5559C8.61845 10.7543 7.38312 9.53088 6.5913 7.96588C6.46564 7.71748 6.35213 7.47926 6.33908 7.43649C6.3196 7.37269 6.36618 7.30832 6.5977 7.07887C6.99463 6.68552 7.17731 6.27175 7.17595 5.76911C7.17566 5.6668 7.01518 4.62558 6.81931 3.45526C6.47897 1.4217 6.45745 1.31581 6.33415 1.06594C6.08798 0.567021 5.65912 0.238724 5.06357 0.0932426C4.71805 0.00884356 4.01471 -0.0273121 3.69675 0.0230054ZM4.7095 0.954363C5.11004 1.01934 5.37648 1.18639 5.5188 1.46169C5.58723 1.59408 6.24542 5.5024 6.24631 5.78174C6.24728 6.07906 6.11904 6.30837 5.81703 6.54944C5.4462 6.84541 5.35321 7.01571 5.35321 7.39887C5.35321 7.56803 5.38045 7.67313 5.48395 7.90315C6.28492 9.68347 7.69989 11.2142 9.44656 12.1899C10.0224 12.5116 10.3814 12.6569 10.6084 12.6601C10.9805 12.6654 11.1637 12.5478 11.5636 12.0468C11.7203 11.8505 11.9973 11.7163 12.2461 11.7163C12.5165 11.7163 16.2447 12.3077 16.4096 12.3768C16.5985 12.4558 16.8196 12.6658 16.9167 12.8585C17.0526 13.1278 17.091 13.3808 17.0699 13.8677C17.0467 14.403 16.9448 14.788 16.6881 15.3105C16.4025 15.8918 15.8796 16.3985 15.2345 16.7191C14.6425 17.0133 14.1729 17.1014 13.3666 17.0694C9.41098 16.9123 5.6623 14.8648 3.32584 11.5851C2.04922 9.79312 1.24396 7.68543 0.991673 5.47583C0.92643 4.90413 0.906267 4.03013 0.952134 3.75924C1.18308 2.39483 2.25589 1.26017 3.58417 0.975463C3.88186 0.911663 4.38797 0.902186 4.7095 0.954363ZM10.5548 1.69829C10.2922 1.81555 10.2286 2.23326 10.441 2.44569C10.5199 2.52461 10.5806 2.53863 11.0422 2.58444C11.3247 2.61248 11.6845 2.66716 11.8418 2.706C13.858 3.20367 15.2952 4.93249 15.4225 7.01321C15.4391 7.28522 15.4638 7.41811 15.5123 7.49797C15.6816 7.77634 16.1582 7.75864 16.2906 7.46907C16.3547 7.3287 16.3395 6.78194 16.2582 6.30623C16.0624 5.16044 15.5378 4.16081 14.6863 3.31081C13.869 2.49511 12.97 2.00681 11.8498 1.77039C11.4862 1.69364 10.6673 1.64804 10.5548 1.69829ZM9.74617 4.54611C9.56682 4.64364 9.48631 4.93635 9.58591 5.129C9.68168 5.31429 9.76401 5.35659 10.0972 5.39193C10.5546 5.44039 10.7988 5.50891 11.1777 5.69512C11.9738 6.08622 12.5432 6.93915 12.6007 7.82641C12.6317 8.30494 12.7771 8.47943 13.121 8.45075C13.3193 8.43423 13.4453 8.33649 13.5061 8.1521C13.5906 7.896 13.4407 7.06964 13.2224 6.588C12.8408 5.74615 12.0619 5.01356 11.2226 4.70719C10.6671 4.50434 9.96407 4.42767 9.74617 4.54611Z" fill="white"/>
</svg>
