<svg width="32" height="31" viewBox="0 0 32 31" fill="none" xmlns="http://www.w3.org/2000/svg">
<path fill-rule="evenodd" clip-rule="evenodd" d="M23.9865 0.875149C23.9865 1.94716 23.904 2.28548 23.4345 3.14051C22.8111 4.27535 22.6428 4.98569 22.6935 6.26642C22.7366 7.35329 22.8605 7.79276 23.4295 8.87531C23.6615 9.31682 23.881 9.80656 23.9173 9.96363C24.0025 10.3323 24.002 11.1859 23.9165 11.5453C23.8499 11.825 23.7945 11.9447 23.2799 12.9221C22.8775 13.6865 22.7353 14.2352 22.6937 15.1849C22.6367 16.488 22.8241 17.2764 23.4667 18.4359C23.8399 19.1094 23.9865 19.6043 23.9865 20.1913C23.9865 20.8569 23.8774 21.2224 23.3932 22.1802C22.837 23.2802 22.7411 23.618 22.6949 24.6408C22.6371 25.9202 22.8329 26.772 23.4278 27.8289C23.5909 28.1186 23.7243 28.3726 23.7243 28.3934C23.7243 28.4142 18.3864 28.4312 11.8622 28.4312H0V29.6907V30.95L15.9746 30.9866C24.7607 31.0066 31.964 31.0039 31.9821 30.9805C32.0002 30.9571 32.0054 23.977 31.9938 15.469L31.9727 0H27.9796H23.9865V0.875149ZM12.2661 2.3372L11.3289 3.29384L11.8495 3.86506C14.0983 6.33243 15.4466 9.24676 15.8349 12.4787C15.9751 13.6461 15.9294 15.6322 15.7372 16.7224C15.1975 19.7838 13.8031 22.5731 11.749 24.7003C11.5229 24.9345 11.3379 25.1365 11.3379 25.1491C11.3379 25.1617 11.7581 25.5782 12.2718 26.0746L13.2057 26.9773L13.6211 26.546C16.1546 23.9163 17.8128 20.6351 18.4153 17.059C19.2802 11.9254 17.7546 6.55448 14.309 2.60197C14.0504 2.30528 13.6958 1.90908 13.521 1.72155L13.2033 1.38057L12.2661 2.3372ZM29.3277 15.4849V28.3995L27.9408 28.4167L26.5538 28.4337L26.4438 28.0993C26.3834 27.9154 26.1299 27.3651 25.8805 26.8764C25.3841 25.9037 25.2791 25.4806 25.3375 24.687C25.3818 24.0837 25.459 23.8501 25.8931 23.0052C26.4283 21.9638 26.5443 21.5455 26.5888 20.4957C26.6419 19.2453 26.4227 18.3194 25.8497 17.3726C25.4508 16.7135 25.3493 16.4006 25.3126 15.7169C25.2681 14.8861 25.357 14.5384 25.853 13.6043C26.4585 12.4638 26.5743 12.0067 26.5743 10.7569C26.5743 9.53272 26.4558 9.04304 25.9099 8.01222C25.5069 7.25105 25.378 6.86202 25.3366 6.2828C25.2798 5.48856 25.3852 5.06546 25.8815 4.09334C26.131 3.60468 26.3843 3.05439 26.4445 2.87041L26.5538 2.53603L27.9408 2.5531L29.3277 2.57024V15.4849ZM7.50757 6.91393L6.59497 7.79936L6.88726 8.10405C8.03488 9.30032 8.84564 10.8517 9.21893 12.5656C9.38042 13.3072 9.38074 15.0366 9.21952 15.8193C8.88614 17.438 8.08738 18.9991 7.01074 20.1361C6.78634 20.3731 6.61378 20.5789 6.62735 20.5934C6.64091 20.6078 7.06487 21.0234 7.5695 21.517L8.48702 22.4143L8.80651 22.0752C9.21481 21.6418 9.93538 20.7038 10.2373 20.2128C11.3847 18.3468 11.927 16.4359 11.9316 14.243C11.9364 11.8386 11.2805 9.71492 9.92378 7.74244C9.51628 7.15008 8.61632 6.09 8.48636 6.04926C8.44993 6.03783 8.00952 6.42699 7.50757 6.91393ZM2.82765 11.4457L1.88772 12.3576L2.12464 12.6769C2.50351 13.1877 2.6355 13.6358 2.60581 14.3108C2.57815 14.9393 2.43725 15.3358 2.09416 15.7508C1.98767 15.8797 1.90057 15.9969 1.90057 16.0113C1.90057 16.0256 2.31738 16.4424 2.8268 16.9374C3.88843 17.9689 3.7662 17.9454 4.30197 17.2199C5.31851 15.8434 5.56965 14.0979 4.98709 12.4581C4.7988 11.9281 4.36502 11.2013 3.98103 10.7723L3.76758 10.5339L2.82765 11.4457Z" fill="url(#paint0_linear_0_95)"/>
<defs>
<linearGradient id="paint0_linear_0_95" x1="7.48936" y1="24.4043" x2="38.0222" y2="-0.947006" gradientUnits="userSpaceOnUse">
<stop stop-color="#63AFCD"/>
<stop offset="1" stop-color="#FF374F"/>
</linearGradient>
</defs>
</svg>
