<svg width="32" height="32" viewBox="0 0 32 32" fill="none" xmlns="http://www.w3.org/2000/svg">
<path fill-rule="evenodd" clip-rule="evenodd" d="M1.31148 14.6589V29.3178H0.655738H0V30.6164V31.9151L0.994033 31.958C2.29069 32.014 29.7093 32.014 31.006 31.958L32 31.9151V30.6164V29.3178H31.3443H30.6885V14.6589V0H16H1.31148V14.6589ZM14.6725 8.62192L14.6557 14.6262L9.37134 14.6429L4.08688 14.6597L4.04348 11.9982C4.01954 10.5344 4 7.82491 4 5.97717V2.61766H9.34459H14.6892L14.6725 8.62192ZM28.0656 8.63828V14.6589H22.7541H17.4426V8.63828V2.61766H22.7541H28.0656V8.63828ZM14.6725 23.3463L14.6557 29.2851L9.37134 29.3018L4.08695 29.3186L4.04354 26.6187C4.01967 25.1338 4.00013 22.4538 4.00007 20.6632L4 17.4075H9.34459H14.6892L14.6725 23.3463ZM28.0656 23.3626V29.3178H22.7541H17.4426V23.3626V17.4075H22.7541H28.0656V23.3626Z" fill="url(#paint0_linear_0_91)"/>
<defs>
<linearGradient id="paint0_linear_0_91" x1="7.48936" y1="25.1915" x2="38.8085" y2="4.16396e-07" gradientUnits="userSpaceOnUse">
<stop stop-color="#63AFCD"/>
<stop offset="1" stop-color="#FF374F"/>
</linearGradient>
</defs>
</svg>
