<svg width="31" height="31" viewBox="0 0 31 31" fill="none" xmlns="http://www.w3.org/2000/svg">
<path fill-rule="evenodd" clip-rule="evenodd" d="M7.76176 6.26716C3.52029 9.7289 0.027933 12.5817 0.000966013 12.6068C-0.0445016 12.649 1.52968 14.6262 1.63379 14.6578C1.6595 14.6655 2.07567 14.349 2.55857 13.9544L3.43656 13.2369L3.45243 22.1184L3.46836 31H15.509H27.5497L27.5656 22.1159L27.5814 13.2319L28.4594 13.9511C28.9423 14.3467 29.3585 14.6644 29.3842 14.657C29.4099 14.6496 29.7991 14.1953 30.2489 13.6474C30.9041 12.8496 31.0508 12.6363 30.9861 12.5762C30.759 12.3653 15.6043 0.0230765 15.5441 5.86637e-05C15.5053 -0.0148279 12.0033 2.80542 7.76176 6.26716ZM20.1988 7.20977L24.8534 11.0033V19.6882V28.373H15.509H6.16462V19.6905V11.008L10.8204 7.21208C13.3812 5.12434 15.4916 3.41614 15.5103 3.41614C15.5289 3.41614 17.6388 5.12328 20.1988 7.20977ZM11.4953 11.1702C11.4953 11.4405 11.2927 11.9339 11.0394 12.2804C10.4929 13.0283 10.241 13.7656 10.1952 14.7512C10.1414 15.9109 10.3695 16.7385 10.9952 17.6541C11.1776 17.9211 11.3647 18.2652 11.4111 18.4187C11.5999 19.0445 11.4696 19.6952 11.0345 20.2993C10.555 20.965 10.2576 21.7505 10.1979 22.5091L10.1598 22.9938H11.4831H12.8066L12.8461 22.7592C12.9168 22.339 13.0017 22.1371 13.2638 21.765C13.8826 20.8869 14.1516 20.0557 14.1516 19.022C14.1516 18.0241 13.9166 17.2233 13.3977 16.453C13.2372 16.2147 13.0566 15.9071 12.9966 15.7695C12.7159 15.1264 12.8142 14.4223 13.2803 13.7366C13.8115 12.9554 14.1046 12.1578 14.1422 11.3911L14.1607 11.0158L12.828 10.9989L11.4953 10.982V11.1702ZM18.1736 13.9399C18.1165 14.2924 17.9594 14.6431 17.6893 15.0214C17.1135 15.8279 16.8653 16.6281 16.8653 17.6772C16.8653 18.7526 17.0969 19.4776 17.7396 20.4141C18.0808 20.9113 18.17 21.1737 18.17 21.6803C18.17 22.1869 18.0808 22.4493 17.7396 22.9465C17.2121 23.715 16.9634 24.3774 16.8585 25.2925L16.8137 25.6834H18.1682H19.5227V25.5384C19.5227 25.2537 19.7127 24.763 19.9524 24.4284C20.5717 23.5638 20.8397 22.7337 20.8397 21.6803C20.8397 20.6759 20.5826 19.8372 20.0247 19.022C19.7222 18.5799 19.5846 18.2504 19.545 17.8733C19.4915 17.3621 19.6119 16.9248 19.9362 16.4522C20.5067 15.6212 20.8397 14.7203 20.8397 14.0081V13.6741H19.5282H18.2167L18.1736 13.9399Z" fill="url(#paint0_linear_0_99)"/>
<defs>
<linearGradient id="paint0_linear_0_99" x1="7.25532" y1="24.4043" x2="37.5957" y2="4.03384e-07" gradientUnits="userSpaceOnUse">
<stop stop-color="#63AFCD"/>
<stop offset="1" stop-color="#FF374F"/>
</linearGradient>
</defs>
</svg>
