<svg width="26" height="32" viewBox="0 0 26 32" fill="none" xmlns="http://www.w3.org/2000/svg">
<path fill-rule="evenodd" clip-rule="evenodd" d="M6.5 0.655738V1.31148H3.25H0V16.6557V32H13H26V16.6557V1.31148H22.75H19.5V0.655738V0H13H6.5V0.655738ZM16.8772 3.60105C16.8556 4.56636 16.8529 4.58289 16.6642 4.85751C16.5591 5.01062 16.3583 5.19751 16.2181 5.27285C15.9702 5.40603 15.8815 5.40984 13 5.40984C10.1185 5.40984 10.0298 5.40603 9.78186 5.27285C9.64167 5.19751 9.44093 5.01062 9.33578 4.85751C9.14709 4.58289 9.14435 4.56636 9.12281 3.60105L9.10108 2.62295H13H16.8989L16.8772 3.60105ZM6.555 4.48761C6.69577 5.46177 7.09978 6.26472 7.77081 6.904C8.2311 7.34249 8.57178 7.5501 9.21534 7.78426L9.71814 7.96721H13H16.2819L16.7847 7.78426C17.4282 7.5501 17.7689 7.34249 18.2292 6.904C18.9002 6.26472 19.3042 5.46177 19.445 4.48761L19.5155 4H21.4514H23.3873V16.6885V29.377H13H2.61275V16.6885V4H4.5486H6.48452L6.555 4.48761ZM14.5292 15.9019C12.6544 17.8313 11.092 19.4098 11.0571 19.4098C11.0222 19.4098 10.3335 18.7311 9.52677 17.9014L8.05994 16.3931L7.15274 17.3283L6.24561 18.2634L8.65125 20.7382L11.0569 23.213L15.4062 18.7371L19.7555 14.2612L18.8466 13.3277L17.9377 12.394L14.5292 15.9019Z" fill="url(#paint0_linear_0_87)"/>
<defs>
<linearGradient id="paint0_linear_0_87" x1="6.08511" y1="25.1915" x2="35.4524" y2="5.99898" gradientUnits="userSpaceOnUse">
<stop stop-color="#63AFCD"/>
<stop offset="1" stop-color="#FF374F"/>
</linearGradient>
</defs>
</svg>
