<svg width="15" height="21" viewBox="0 0 15 21" fill="none" xmlns="http://www.w3.org/2000/svg">
<path d="M7.03067 0.505946L7.03066 0.505948C6.38583 0.580643 6.13745 0.622251 5.81787 0.702195L5.69653 0.217141L5.81787 0.702196C3.38053 1.31189 1.40872 3.25619 0.744668 5.71328M7.03067 0.505946L0.744668 5.71328M7.03067 0.505946C7.1123 0.496488 7.39766 0.497668 7.7495 0.513427C8.09048 0.5287 8.42206 0.554201 8.57757 0.578565C11.0021 0.958533 13.1004 2.65161 14.0046 4.96442C14.5324 6.31437 14.6389 7.70738 14.322 9.14919C13.7939 11.551 12.0946 14.73 9.39808 18.2567C9.0434 18.7205 8.63829 19.2301 8.29631 19.6469C7.94084 20.0802 7.68517 20.3739 7.61285 20.4401M7.03067 0.505946L7.61285 20.4401M0.744668 5.71328C0.522181 6.53658 0.443703 7.58162 0.541217 8.3824L0.541218 8.38241C0.839417 10.8316 2.59957 14.3301 5.60186 18.2567L5.20466 18.5604M0.744668 5.71328L5.20466 18.5604M5.20466 18.5604L5.60186 18.2567C5.95654 18.7205 6.36164 19.2301 6.70363 19.6469C7.05903 20.0801 7.31467 20.3738 7.38705 20.44L5.20466 18.5604ZM11.6301 6.46112L11.6301 6.46113C11.6983 6.70749 11.7381 7.04297 11.7544 7.35588C11.7708 7.67036 11.766 8.01111 11.7257 8.27161M11.6301 6.46112L10.8367 4.90601C10.1476 4.02384 9.1654 3.46593 8.04167 3.31068C7.26726 3.20369 6.51987 3.31629 5.77951 3.64266L5.77948 3.64267C4.62911 4.14987 3.71071 5.23009 3.36981 6.46112C3.30159 6.70749 3.2618 7.04297 3.24551 7.35588C3.22914 7.67036 3.23397 8.01108 3.27421 8.27158M11.6301 6.46112C11.4886 5.95012 11.1751 5.33913 10.8367 4.90602L11.6301 6.46112ZM11.7257 8.27161L11.2316 8.19527M11.7257 8.27161L11.2316 8.19527M11.7257 8.27161C11.4515 10.0476 10.0429 11.5135 8.28261 11.8493L8.28258 11.8493C8.06769 11.8903 7.77122 11.9065 7.49997 11.9065C7.22872 11.9065 6.93225 11.8903 6.71736 11.8493L6.71733 11.8493C4.95702 11.5135 3.54847 10.0476 3.27421 8.27158M11.2316 8.19527C10.9894 9.76359 9.74004 11.0623 8.18892 11.3582L11.1483 6.59456C11.2564 6.98502 11.2973 7.77004 11.2316 8.19527ZM3.27421 8.27158L3.76835 8.19527M3.27421 8.27158L3.76835 8.19527M3.76835 8.19527C4.01054 9.76359 5.2599 11.0623 6.81102 11.3582L7.97324 3.80598C7.29584 3.71239 6.6417 3.80902 5.98119 4.10018C4.97224 4.54502 4.15376 5.50368 3.85168 6.59456C3.74355 6.98502 3.70266 7.77004 3.76835 8.19527ZM7.61285 20.4401C7.55083 20.4968 7.5117 20.5 7.49997 20.5M7.61285 20.4401L7.49997 20.5M7.49997 20.5C7.48823 20.5 7.44911 20.4968 7.38708 20.4401L7.49997 20.5Z" stroke="white"/>
</svg>
