<svg width="32" height="32" viewBox="0 0 32 32" fill="none" xmlns="http://www.w3.org/2000/svg">
<path fill-rule="evenodd" clip-rule="evenodd" d="M15.5149 0.0186272C15.0789 0.0881323 14.4839 0.303905 14.1177 0.52537C13.8182 0.706421 12.1482 2.33031 7.06399 7.38429C3.40024 11.0263 0.312117 14.1365 0.201447 14.2961C0.0247125 14.5509 0.000188683 14.6362 1.00083e-06 14.9981C-0.000186682 15.3507 0.0259012 15.4477 0.180552 15.6709C0.403769 15.993 0.681288 16.17 1.04026 16.2192C1.54788 16.2888 1.78836 16.1705 2.47059 15.5157L3.0932 14.9181L3.11146 21.3835C3.13148 28.46 3.10758 27.9886 3.4944 28.9461C3.93783 30.0439 5.14513 31.2364 6.22067 31.6388C7.18818 32.0008 6.50808 31.9753 15.7339 31.9956C21.5855 32.0085 24.3368 31.9934 24.6175 31.9468C26.9399 31.5616 28.6851 29.6619 28.8527 27.3364C28.8866 26.8675 28.8755 26.7947 28.7236 26.4842C28.4796 25.9855 28.1629 25.7845 27.6212 25.7845C27.274 25.7845 27.1624 25.8125 26.951 25.9523C26.5842 26.1951 26.4406 26.4678 26.3658 27.0645C26.2163 28.2569 25.6521 29.0163 24.6581 29.3632C24.3543 29.4692 23.8602 29.4756 15.9841 29.4756C8.10801 29.4756 7.6139 29.4692 7.31011 29.3632C6.60699 29.1178 6.05633 28.5913 5.77562 27.896L5.63029 27.5362L5.61352 19.9663L5.59675 12.3965L10.4933 7.50641C14.7113 3.29394 15.4244 2.60696 15.64 2.54884C15.995 2.45299 16.2285 2.46626 16.5159 2.59839C16.6897 2.67834 18.2267 4.17761 21.552 7.5111L26.3379 12.3088L26.3692 16.7319L26.4005 21.155L26.5489 21.3938C26.6306 21.5252 26.8116 21.7082 26.951 21.8004C27.1624 21.9403 27.274 21.9683 27.6212 21.9683C27.9777 21.9683 28.075 21.9424 28.2962 21.7892C28.4577 21.6772 28.6141 21.4908 28.7132 21.2921L28.8716 20.974V17.9427V14.9113L29.4891 15.5104C29.9721 15.9792 30.1661 16.1257 30.38 16.1833C31.148 16.39 31.8878 15.8968 31.9802 15.1164C32.0537 14.4965 32.2818 14.7472 24.9449 7.38516C17.7703 0.185978 18.0308 0.427525 17.1495 0.157325C16.7642 0.0392097 15.8645 -0.037177 15.5149 0.0186272ZM15.3132 8.51839C14.5409 8.68624 14.191 8.93598 12.7506 10.3472C11.5771 11.497 11.417 11.6779 11.3522 11.9266C11.0939 12.9192 11.927 13.7583 12.9084 13.494C13.1239 13.436 13.3288 13.2753 13.9243 12.697L14.6703 11.9726V17.6829V23.3932L13.9243 22.6688C13.3288 22.0905 13.1239 21.9297 12.9084 21.8717C11.9388 21.6106 11.0989 22.4561 11.3512 23.4391C11.4152 23.6883 11.5728 23.8666 12.7496 25.0211C13.9401 26.1889 14.1273 26.3477 14.5765 26.5698C15.5536 27.0529 16.4857 27.0443 17.4339 26.5434C17.8366 26.3306 18.1279 26.0872 19.0843 25.1647C19.7231 24.5485 20.3355 23.9151 20.4451 23.7571C20.6197 23.5054 20.6443 23.4193 20.6434 23.0631C20.6425 22.721 20.6142 22.6146 20.4647 22.3928C20.2655 22.0971 19.7713 21.8116 19.4596 21.8123C18.9811 21.8131 18.797 21.9276 17.9735 22.736L17.1728 23.5224V17.6829V11.8434L17.9744 12.6305C18.6331 13.2773 18.8254 13.4309 19.053 13.4922C19.8238 13.6997 20.5635 13.2136 20.6552 12.439C20.7223 11.8728 20.5382 11.608 19.1382 10.2573C17.7927 8.95919 17.3857 8.67661 16.6312 8.51676C16.1127 8.40691 15.8248 8.40728 15.3132 8.51839Z" fill="url(#paint0_linear_0_256)"/>
<defs>
<linearGradient id="paint0_linear_0_256" x1="7.48936" y1="25.1915" x2="38.8085" y2="4.16396e-07" gradientUnits="userSpaceOnUse">
<stop stop-color="#63AFCD"/>
<stop offset="1" stop-color="#FF374F"/>
</linearGradient>
</defs>
</svg>
