<svg width="35" height="35" viewBox="0 0 35 35" fill="none" xmlns="http://www.w3.org/2000/svg">
<path fill-rule="evenodd" clip-rule="evenodd" d="M8.74984 0.11971C8.3191 0.350719 8.23854 0.532421 8.21241 1.33145L8.18909 2.04471H5.47395C3.28791 2.04471 2.68249 2.06461 2.36713 2.14675C0.67557 2.58729 -0.330764 4.25543 0.0992223 5.90614C0.327655 6.78306 0.967882 7.54119 1.82129 7.94542L2.28554 8.16528L5.22644 8.19947L8.16734 8.23367V9.25946V10.2853L7.14144 10.3258C5.74896 10.3808 4.94439 10.587 3.84887 11.1698C-0.369201 13.4134 -1.30051 19.0143 1.97305 22.451C3.45499 24.0067 5.3174 24.7486 7.74173 24.7489L8.20516 24.7489L8.18628 25.7576L8.16734 26.7663L5.22644 26.8005L2.28554 26.8347L1.82129 27.0546C1.27394 27.3138 0.640416 27.8898 0.3836 28.3615C-0.590658 30.1514 0.373136 32.3339 2.36713 32.8533C2.68256 32.9355 3.28859 32.9553 5.48018 32.9553H8.20154V33.573C8.20154 33.9449 8.23929 34.281 8.2964 34.4176C8.51095 34.9311 9.25424 35.1649 9.69989 34.8591C10.1415 34.556 10.2166 34.3865 10.2427 33.6344L10.2661 32.9553H13.3716H16.4771V33.5735C16.4771 34.3353 16.6141 34.6609 17.0225 34.8692C17.3643 35.0436 17.6417 35.0436 17.9835 34.8692C18.3918 34.6609 18.5289 34.3353 18.5289 33.5735V32.9553H21.6343H24.7398L24.7633 33.6344C24.7894 34.3865 24.8645 34.556 25.3061 34.8591C25.7517 35.1649 26.495 34.9311 26.7096 34.4176C26.7667 34.281 26.8044 33.9449 26.8044 33.573V32.9553H27.4388C30.0017 32.9553 32.1556 31.9159 33.5909 29.9864C36.0393 26.6951 35.2081 22.0127 31.7694 19.7249C30.5723 18.9284 29.499 18.6027 27.8816 18.5449L26.8044 18.5064V17.4903V16.4742L27.5738 16.4739C29.9918 16.473 31.9931 15.5503 33.4057 13.7849C34.8239 12.0126 35.3348 9.68092 34.7812 7.50747C34.0586 4.67068 31.6367 2.52793 28.6898 2.11802C28.3997 2.07774 27.8569 2.04471 27.4834 2.04471H26.8044V1.42705C26.8044 1.0551 26.7667 0.719047 26.7096 0.582411C26.495 0.0688991 25.7517 -0.164913 25.3061 0.14091C24.8645 0.443998 24.7894 0.613459 24.7633 1.36564L24.7398 2.04471H21.6343H18.5289V1.4265C18.5289 0.664748 18.3918 0.339093 17.9835 0.130789C17.6417 -0.0435962 17.3643 -0.0435962 17.0225 0.130789C16.6141 0.339093 16.4771 0.664748 16.4771 1.4265V2.04471H13.3716H10.2661L10.2427 1.36564C10.2233 0.807402 10.1937 0.652302 10.0761 0.493714C9.7215 0.015763 9.21177 -0.127985 8.74984 0.11971ZM8.20154 5.12209V6.14789H5.49659C2.54605 6.14789 2.54331 6.14754 2.26126 5.75152C1.97435 5.34859 1.98988 4.87043 2.30196 4.49957C2.63428 4.10471 2.65705 4.10191 5.55131 4.09897L8.20154 4.0963V5.12209ZM16.4771 5.12209V6.14789H13.3652H10.2533V5.12209V4.0963H13.3652H16.4771V5.12209ZM24.7526 5.12209V6.14789H21.6408H18.5289V5.12209V4.0963H21.6408H24.7526V5.12209ZM29.081 4.29407C31.6897 4.9791 33.3347 7.54228 32.8627 10.1868C32.6763 11.2319 32.2266 12.0723 31.421 12.8815C30.3453 13.9619 29.1935 14.4145 27.5055 14.4202L26.8044 14.4226V13.3968V12.371L27.4371 12.37C28.5861 12.3682 29.3403 12.09 29.9956 11.4265C31.1918 10.2153 31.1852 8.2972 29.9808 7.09374C29.3121 6.42547 28.5397 6.1496 27.3345 6.14843L26.8044 6.14789V5.11225V4.07667L27.6764 4.11545C28.2177 4.13952 28.7505 4.20729 29.081 4.29407ZM16.4771 9.25946V10.3194H13.3652H10.2533V9.25946V8.19947H13.3652H16.4771V9.25946ZM24.7526 9.25946V10.3194H21.6408H18.5289V9.25946V8.19947H21.6408H24.7526V9.25946ZM28.0689 8.27593C28.4439 8.38008 28.768 8.73849 28.8239 9.11113C28.8822 9.50004 28.7394 9.83473 28.4071 10.0882C28.1639 10.2736 28.1102 10.2853 27.4937 10.2853H26.8386L26.8195 9.33113C26.809 8.8064 26.8157 8.33707 26.8345 8.28824C26.8775 8.17615 27.6805 8.16815 28.0689 8.27593ZM8.20154 13.3968V14.4226L7.50051 14.4234C6.38344 14.4247 5.66696 14.6913 5.00704 15.3511C3.69409 16.664 3.84682 18.784 5.33943 19.9637C5.87494 20.3869 6.32531 20.5257 7.31243 20.5718L8.16734 20.6116L8.18628 21.6203L8.20516 22.629H7.32522C6.26731 22.629 5.645 22.4913 4.86485 22.0849C2.18405 20.688 1.26854 17.4668 2.80841 14.8493C3.10338 14.3479 4.02327 13.4281 4.52473 13.1332C5.45104 12.5884 6.22539 12.3844 7.39792 12.3764L8.20154 12.371V13.3968ZM16.4771 13.3968V14.4226H13.3652H10.2533V13.3968V12.371H13.3652H16.4771V13.3968ZM24.7526 13.3968V14.4226H21.6408H18.5289V13.3968V12.371H21.6408H24.7526V13.3968ZM8.20154 17.5V18.5258H7.57923C6.85891 18.5258 6.5627 18.4199 6.36382 18.0911C6.08347 17.6278 6.09667 17.2445 6.40554 16.8775C6.66851 16.565 6.92279 16.48 7.6031 16.4769L8.20154 16.4742V17.5ZM16.4771 17.5V18.5258H13.3652H10.2533V17.5V16.4742H13.3652H16.4771V17.5ZM24.7526 17.5V18.5258H21.6408H18.5289V17.5V16.4742H21.6408H24.7526V17.5ZM16.4771 21.6032V22.629H13.3652H10.2533V21.6032V20.5774H13.3652H16.4771V21.6032ZM24.7526 21.6032V22.629H21.6408H18.5289V21.6032V20.5774H21.6408H24.7526V21.6032ZM29.0956 20.7451C31.6298 21.4256 33.3016 23.9561 32.8929 26.4928C32.6816 27.8042 31.9799 28.9866 30.9479 29.7699C29.9506 30.5268 29.0843 30.8219 27.6764 30.8846L26.8044 30.9233V29.8878V28.8521L27.3345 28.8516C28.5391 28.8504 29.3124 28.5744 29.9795 27.9073C31.1844 26.7026 31.1924 24.7853 29.9977 23.5756C29.3402 22.9099 28.5873 22.6318 27.4371 22.63L26.8044 22.629V21.5936V20.5582L27.7448 20.5965C28.2677 20.6178 28.8674 20.6837 29.0956 20.7451ZM16.4771 25.7405V26.8005H13.3652H10.2533V25.7758V24.7511L12.1512 24.7318C13.195 24.7212 14.5955 24.7053 15.2631 24.6966L16.4771 24.6806V25.7405ZM24.7526 25.7405V26.8005H21.6408H18.5289V25.7405V24.6806H21.6408H24.7526V25.7405ZM28.2393 24.8344C28.6675 25.0532 28.8228 25.2941 28.8187 25.733C28.8162 25.9923 28.7722 26.1516 28.6594 26.3101C28.4075 26.6638 28.1525 26.7597 27.4542 26.7633L26.8386 26.7663L26.8195 25.8122C26.809 25.2875 26.8157 24.8181 26.8345 24.7693C26.8584 24.707 27.028 24.6806 27.4033 24.6806C27.8231 24.6806 28.0029 24.7137 28.2393 24.8344ZM8.20154 29.8802V30.9082L5.47074 30.8889C2.83508 30.8702 2.73338 30.8646 2.55118 30.7285C1.90692 30.2473 1.89454 29.4362 2.52485 29.006C2.74938 28.8527 2.76176 28.8521 5.47594 28.8521H8.20154V29.8802ZM16.4771 29.8779V30.9037H13.3652H10.2533V29.8779V28.8521H13.3652H16.4771V29.8779ZM24.7526 29.8779V30.9037H21.6408H18.5289V29.8779V28.8521H21.6408H24.7526V29.8779Z" fill="url(#paint0_linear_0_261)"/>
<defs>
<linearGradient id="paint0_linear_0_261" x1="8.19149" y1="27.5532" x2="42.4468" y2="4.55433e-07" gradientUnits="userSpaceOnUse">
<stop stop-color="#63AFCD"/>
<stop offset="1" stop-color="#FF374F"/>
</linearGradient>
</defs>
</svg>
