<svg width="185" height="46" viewBox="0 0 185 46" fill="none" xmlns="http://www.w3.org/2000/svg">
<g clip-path="url(#clip0_0_55)">
<path fill-rule="evenodd" clip-rule="evenodd" d="M183.302 36.3262L183.064 35.5089L182.827 36.3113L182.671 36.7943H183.48L183.302 36.3262ZM184.043 38.4066L183.732 37.567H182.36L182.056 38.4066H181.099L182.694 34.2978H183.435L185.022 38.4066H184.043ZM177.636 37.1509C177.646 37.0944 177.646 37.0366 177.636 36.98C177.616 36.9255 177.583 36.877 177.54 36.8389C177.496 36.7901 177.439 36.7541 177.376 36.7348C177.298 36.7064 177.215 36.6937 177.132 36.6977H176.39V37.6042H177.132C177.205 37.6118 177.28 37.6039 177.35 37.5808C177.42 37.5578 177.485 37.5202 177.54 37.4704C177.612 37.3804 177.646 37.2659 177.636 37.1509ZM177.54 35.5163C177.542 35.464 177.533 35.4119 177.514 35.3632C177.495 35.3146 177.466 35.2705 177.428 35.2339C177.313 35.149 177.17 35.1094 177.028 35.1225H176.331V35.9472H177.028C177.1 35.9543 177.173 35.946 177.242 35.923C177.311 35.9 177.375 35.8627 177.428 35.8135C177.505 35.7281 177.545 35.616 177.54 35.5014V35.5163ZM178.57 37.1509C178.572 37.3248 178.537 37.497 178.467 37.6562C178.401 37.8015 178.305 37.9308 178.185 38.0351C178.068 38.1429 177.932 38.2285 177.784 38.2877C177.626 38.348 177.457 38.3782 177.287 38.3769H175.419V34.2978H177.146C177.343 34.2925 177.538 34.3201 177.725 34.3795C177.881 34.4329 178.027 34.5134 178.155 34.6172C178.267 34.7214 178.355 34.848 178.415 34.9888C178.475 35.1372 178.506 35.2964 178.504 35.4569C178.503 35.6132 178.462 35.7667 178.385 35.9027C178.302 36.066 178.162 36.193 177.992 36.2593C178.085 36.2878 178.169 36.3389 178.237 36.4079C178.308 36.4733 178.371 36.5483 178.422 36.6308C178.467 36.7128 178.502 36.8002 178.526 36.8909C178.554 36.9746 178.569 37.0624 178.57 37.1509ZM171.451 35.0779V38.3769H170.568V35.1076H169.449V34.2978H172.593V35.1076L171.451 35.0779ZM166.86 37.4036C166.772 37.7087 166.577 37.9721 166.312 38.1466C166.025 38.3388 165.685 38.435 165.34 38.4215C165.102 38.429 164.865 38.3885 164.643 38.3026C164.454 38.2338 164.284 38.1219 164.146 37.9757C164.013 37.8284 163.914 37.6533 163.857 37.463C163.787 37.2548 163.752 37.0363 163.753 36.8166V35.8507C163.753 35.6432 163.788 35.4372 163.857 35.2414C163.916 35.0541 164.015 34.8818 164.146 34.7361C164.285 34.584 164.455 34.4625 164.643 34.3795C164.865 34.2908 165.102 34.2478 165.34 34.2532C165.688 34.2412 166.031 34.3401 166.319 34.5355C166.573 34.7196 166.763 34.9797 166.86 35.2785L166 35.5906C165.973 35.4499 165.897 35.3234 165.785 35.2339C165.659 35.1278 165.497 35.0745 165.333 35.0853C165.23 35.0798 165.128 35.1003 165.036 35.1448C164.957 35.1786 164.886 35.2294 164.828 35.2934C164.773 35.3555 164.733 35.4291 164.71 35.5089C164.681 35.5875 164.666 35.6704 164.665 35.7541V36.8686C164.665 36.9572 164.68 37.0453 164.71 37.1286C164.733 37.2084 164.773 37.282 164.828 37.3441C164.886 37.4103 164.957 37.4635 165.036 37.5001C165.13 37.5402 165.231 37.5604 165.333 37.5596C165.496 37.5654 165.657 37.5127 165.785 37.411C165.898 37.3193 165.974 37.1901 166 37.0469L166.86 37.4036ZM160.127 37.1509C160.128 37.0942 160.117 37.0379 160.095 36.9856C160.073 36.9332 160.041 36.8858 160.001 36.8463C159.948 36.7935 159.883 36.7535 159.813 36.729C159.742 36.7046 159.667 36.6964 159.593 36.7051H158.784V37.6116H159.593C159.667 37.6203 159.742 37.6121 159.813 37.5877C159.883 37.5632 159.948 37.5232 160.001 37.4704C160.042 37.4282 160.074 37.3782 160.096 37.3233C160.117 37.2685 160.128 37.2099 160.127 37.1509ZM161.046 37.1509C161.056 37.3297 161.027 37.5085 160.962 37.6751C160.897 37.8418 160.797 37.9924 160.668 38.1168C160.372 38.3638 159.993 38.4886 159.608 38.4661H157.887V34.2978H158.792V35.8729H159.622C159.835 35.8668 160.046 35.9022 160.245 35.977C160.41 36.0357 160.561 36.1267 160.69 36.2444C160.806 36.3558 160.896 36.4899 160.957 36.6382C161.016 36.7822 161.046 36.9361 161.046 37.0915V37.1509ZM154.646 34.3572V38.4661H153.749V35.1151H152.77V36.0958C152.771 36.3961 152.756 36.6962 152.726 36.9949C152.694 37.2507 152.626 37.5008 152.525 37.7379C152.425 37.9476 152.272 38.1271 152.08 38.258C151.846 38.4006 151.576 38.4752 151.302 38.4735L151.176 37.7305C151.328 37.7053 151.471 37.6413 151.591 37.5447C151.693 37.4579 151.77 37.3449 151.813 37.2178C151.868 37.0672 151.9 36.9095 151.91 36.7497C151.91 36.5714 151.91 36.3633 151.91 36.133V34.2978L154.646 34.3572ZM145.68 38.4661V34.2978H148.58V35.1076H146.585V35.9398H148.32V36.7274H146.622V37.5893H148.617V38.4066L145.68 38.4661ZM141.713 35.1671V38.4661H140.801V35.1076H139.688V34.2978H142.833V35.1076L141.713 35.1671ZM133.488 38.4066V34.2978H134.393V36.8686L135.231 35.5534L136.091 34.2978H136.833V38.4066H135.928V35.9175L135.328 36.8909L134.282 38.3769L133.488 38.4066ZM128.853 35.1151C128.751 35.1095 128.649 35.13 128.557 35.1745C128.478 35.2084 128.407 35.2591 128.349 35.3231C128.294 35.3866 128.251 35.4596 128.223 35.5386C128.2 35.6183 128.187 35.7008 128.186 35.7838V36.8983C128.187 36.9862 128.199 37.0737 128.223 37.1584C128.251 37.2373 128.294 37.3104 128.349 37.3738C128.406 37.44 128.477 37.4932 128.557 37.5299C128.651 37.5699 128.751 37.5901 128.853 37.5893C128.948 37.5957 129.043 37.581 129.132 37.5463C129.22 37.5116 129.3 37.4578 129.365 37.3887C129.485 37.2544 129.549 37.0787 129.543 36.8983V35.7838C129.546 35.6979 129.531 35.6123 129.501 35.532C129.47 35.4517 129.424 35.3782 129.365 35.3157C129.303 35.2504 129.228 35.1989 129.145 35.1644C129.062 35.1298 128.973 35.113 128.883 35.1151H128.853ZM128.853 34.268C129.082 34.2623 129.309 34.3027 129.521 34.3869C129.711 34.4588 129.884 34.5711 130.028 34.7159C130.171 34.8608 130.281 35.035 130.351 35.2265C130.427 35.431 130.464 35.6475 130.463 35.8655V36.8314C130.466 37.0592 130.428 37.2857 130.351 37.5001C130.276 37.6882 130.166 37.8598 130.025 38.0054C129.881 38.1464 129.71 38.2553 129.521 38.3249C129.307 38.4016 129.081 38.4394 128.853 38.4363C128.615 38.4438 128.377 38.4008 128.156 38.31C127.969 38.2279 127.8 38.1092 127.659 37.9608C127.528 37.8098 127.429 37.6325 127.37 37.4407C127.302 37.2449 127.266 37.0389 127.266 36.8314V35.8655C127.266 35.658 127.302 35.452 127.37 35.2562C127.429 35.069 127.528 34.8966 127.659 34.751C127.799 34.5988 127.968 34.4774 128.156 34.3943C128.39 34.3021 128.64 34.2591 128.89 34.268H128.853ZM123.707 35.598C123.711 35.529 123.7 35.4598 123.674 35.3956C123.648 35.3314 123.609 35.2736 123.558 35.2265C123.434 35.1413 123.286 35.0995 123.136 35.1076H122.394V36.0884H123.136C123.276 36.0909 123.413 36.0435 123.521 35.9547C123.585 35.9182 123.638 35.8665 123.677 35.8043C123.716 35.7421 123.739 35.6712 123.744 35.598H123.707ZM124.626 35.598C124.627 35.775 124.589 35.9499 124.515 36.1107C124.44 36.2648 124.337 36.4034 124.211 36.5194C124.077 36.6348 123.924 36.7254 123.759 36.7868C123.58 36.8502 123.392 36.8828 123.202 36.8834H122.439V38.3695H121.534V34.2978H123.225C123.424 34.2949 123.621 34.325 123.811 34.3869C123.98 34.4419 124.136 34.5303 124.27 34.647C124.398 34.7614 124.497 34.9038 124.56 35.0631C124.63 35.2404 124.665 35.4296 124.663 35.6203L124.626 35.598ZM117.522 35.0853V38.3843H116.654V35.1076H115.534V34.2978H118.656V35.1076L117.522 35.0853ZM112.931 37.3813C112.839 37.685 112.645 37.9475 112.382 38.1243C112.093 38.3157 111.75 38.4118 111.404 38.3992C111.166 38.4053 110.929 38.3649 110.706 38.2803C110.519 38.2097 110.349 38.098 110.21 37.9534C110.079 37.8043 109.98 37.6297 109.92 37.4407C109.852 37.2321 109.82 37.0136 109.824 36.7943V35.8284C109.821 35.6213 109.854 35.4153 109.92 35.2191C109.983 35.0332 110.081 34.8615 110.21 34.7138C110.349 34.5617 110.518 34.4402 110.706 34.3572C110.928 34.2699 111.165 34.2269 111.404 34.2309C111.751 34.2189 112.094 34.3178 112.382 34.5132C112.64 34.6961 112.832 34.9564 112.931 35.2562L112.071 35.5683C112.038 35.4281 111.96 35.3027 111.848 35.2117C111.723 35.1048 111.56 35.0514 111.396 35.0631C111.296 35.0581 111.197 35.0786 111.107 35.1225C111.026 35.1524 110.954 35.2038 110.899 35.2711C110.842 35.3327 110.799 35.4063 110.773 35.4866C110.745 35.5652 110.73 35.6481 110.729 35.7318V36.8463C110.728 36.9349 110.743 37.023 110.773 37.1063C110.799 37.1866 110.842 37.2602 110.899 37.3218C110.953 37.3913 111.025 37.4452 111.107 37.4778C111.198 37.5183 111.297 37.5386 111.396 37.5373C111.56 37.5445 111.721 37.4916 111.848 37.3887C111.963 37.2973 112.042 37.1684 112.071 37.0246L112.931 37.3813ZM101.377 35.5609C101.37 35.6234 101.381 35.6866 101.409 35.7431C101.437 35.7996 101.479 35.8472 101.533 35.8804C101.662 35.9444 101.804 35.9751 101.948 35.9695H102.623V35.1076H101.918C101.776 35.0995 101.636 35.1387 101.518 35.2191C101.471 35.262 101.433 35.315 101.409 35.3741C101.385 35.4332 101.374 35.497 101.377 35.5609ZM103.528 34.2978V38.4066H102.623V36.7423H102.208C102.139 36.7345 102.069 36.7345 102 36.7423C101.931 36.7666 101.868 36.8045 101.815 36.8537C101.754 36.9161 101.702 36.986 101.659 37.0618C101.601 37.1682 101.554 37.2802 101.518 37.3961L101.236 38.3769H100.279L100.598 37.2327C100.637 37.0917 100.694 36.9567 100.769 36.8314C100.854 36.7014 100.983 36.6064 101.132 36.5639C101.031 36.5309 100.938 36.4778 100.858 36.4079C100.77 36.3366 100.695 36.2512 100.635 36.1553C100.575 36.0596 100.533 35.9539 100.509 35.8432C100.434 35.5547 100.455 35.2494 100.569 34.9739C100.641 34.8229 100.744 34.6891 100.872 34.5815C101 34.4738 101.149 34.3948 101.31 34.3498C101.474 34.2914 101.648 34.2637 101.822 34.268L103.528 34.2978ZM93.9536 38.4066V34.2978H94.8584V36.8686L95.6964 35.5534L96.5641 34.2978H97.3057V38.4066H96.4083V35.9175L95.8076 36.8909L94.762 38.3769L93.9536 38.4066ZM90.3049 38.4066H87.3385V34.2978H88.2507V37.5819H89.593V34.2978H90.4903V37.5967H91.0243V39.38H90.2827L90.3049 38.4066ZM82.8148 35.1151C82.7149 35.1101 82.6154 35.1306 82.5255 35.1745C82.4508 35.2087 82.3849 35.2596 82.3327 35.3231C82.285 35.3878 82.2498 35.4609 82.2289 35.5386C82.218 35.62 82.218 35.7024 82.2289 35.7838V36.8983C82.2175 36.9846 82.2175 37.072 82.2289 37.1584C82.2466 37.2372 82.2821 37.3109 82.3327 37.3738C82.3783 37.4426 82.4427 37.4967 82.5181 37.5299C82.6086 37.5718 82.7076 37.5922 82.8073 37.5893C82.8979 37.5973 82.989 37.5832 83.0729 37.5483C83.1569 37.5133 83.2311 37.4586 83.2894 37.3887C83.3953 37.248 83.4479 37.0742 83.4377 36.8983V35.7838C83.4426 35.6154 83.3903 35.4504 83.2894 35.3157C83.2331 35.2454 83.1603 35.1902 83.0774 35.1552C82.9945 35.1202 82.9043 35.1064 82.8148 35.1151ZM82.8148 34.268C83.0479 34.2605 83.2801 34.301 83.497 34.3869C83.6805 34.4612 83.8451 34.5754 83.9791 34.7213C84.1051 34.8696 84.2009 35.0412 84.2609 35.2265C84.3213 35.4341 84.3513 35.6493 84.3499 35.8655V36.8314C84.3515 37.0585 84.3165 37.2843 84.246 37.5001C84.1761 37.6856 84.0731 37.8568 83.942 38.0054C83.805 38.1476 83.6377 38.2568 83.4525 38.3249C83.2438 38.4023 83.0225 38.4401 82.7999 38.4363C82.5636 38.4446 82.3283 38.4015 82.1102 38.31C81.9296 38.2278 81.7679 38.1089 81.6356 37.9608C81.5083 37.8089 81.4148 37.6316 81.3612 37.4407C81.3011 37.2433 81.2711 37.0378 81.2722 36.8314V36.7274H80.8347V38.4066H79.9299V34.2978H80.8347V35.9398H81.2574V35.8655C81.255 35.6584 81.2876 35.4524 81.3538 35.2562C81.4076 35.0699 81.5012 34.8975 81.6282 34.751C81.761 34.5983 81.9255 34.4766 82.1102 34.3943C82.3386 34.3025 82.5836 34.2594 82.8296 34.268H82.8148ZM76.741 34.268V38.3769H75.8437V35.1151H74.9019V36.0958C74.9026 36.3961 74.8877 36.6962 74.8574 36.9949C74.8265 37.2518 74.7565 37.5023 74.6497 37.7379C74.5502 37.9456 74.3996 38.1246 74.2122 38.258C73.9754 38.402 73.7031 38.4766 73.4261 38.4735L73.3074 37.7305C73.4595 37.7053 73.6025 37.6413 73.7227 37.5447C73.823 37.4561 73.8994 37.3437 73.9452 37.2178C73.9959 37.0662 74.0283 36.909 74.0416 36.7497C74.0416 36.5714 74.0416 36.3633 74.0416 36.133V34.2978L76.741 34.268ZM68.969 35.1151C68.8692 35.1101 68.7697 35.1306 68.6798 35.1745C68.5974 35.2062 68.5237 35.2572 68.4648 35.3231C68.4122 35.387 68.372 35.46 68.3461 35.5386C68.3176 35.6172 68.3026 35.7001 68.3016 35.7838V36.8983C68.3008 36.9869 68.3159 37.075 68.3461 37.1584C68.372 37.2369 68.4122 37.31 68.4648 37.3738C68.5234 37.4418 68.597 37.4953 68.6798 37.5299C68.7708 37.5704 68.8695 37.5906 68.969 37.5893C69.0648 37.5948 69.1607 37.5797 69.2502 37.5451C69.3397 37.5105 69.4208 37.4572 69.4882 37.3887C69.6085 37.2544 69.6723 37.0787 69.6662 36.8983V35.7838C69.6687 35.6979 69.6542 35.6123 69.6237 35.532C69.5931 35.4517 69.5471 35.3782 69.4882 35.3157C69.4208 35.2472 69.3397 35.1939 69.2502 35.1593C69.1607 35.1247 69.0648 35.1096 68.969 35.1151ZM68.969 34.268C69.1971 34.2637 69.4239 34.3041 69.6365 34.3869C69.8246 34.4646 69.9959 34.5782 70.1408 34.7213C70.2812 34.8669 70.3921 35.0385 70.4671 35.2265C70.5364 35.4324 70.5715 35.6483 70.5709 35.8655V36.8314C70.5739 37.0592 70.5363 37.2857 70.4597 37.5001C70.3864 37.6891 70.2754 37.861 70.1334 38.0054C69.9921 38.1495 69.8195 38.2588 69.6291 38.3249C69.4174 38.4009 69.1939 38.4386 68.969 38.4363C68.7156 38.4491 68.4625 38.406 68.2274 38.31C68.0435 38.2261 67.8773 38.1075 67.738 37.9608C67.6038 37.8102 67.5028 37.633 67.4413 37.4407C67.3751 37.2445 67.3425 37.0385 67.3449 36.8314V35.8655C67.3425 35.6584 67.3751 35.4524 67.4413 35.2562C67.503 35.0685 67.6042 34.8962 67.738 34.751C67.8749 34.5997 68.0416 34.4783 68.2274 34.3943C68.4635 34.3023 68.7159 34.2593 68.969 34.268ZM63.674 37.1509C63.6806 37.0942 63.6806 37.0368 63.674 36.98C63.6514 36.9271 63.6187 36.8791 63.5776 36.8389C63.5323 36.7916 63.4764 36.7559 63.4145 36.7348C63.336 36.7069 63.2529 36.6943 63.1697 36.6977H62.4281V37.6042H63.1697C63.2433 37.6118 63.3176 37.6039 63.3879 37.5808C63.4582 37.5578 63.5228 37.5202 63.5776 37.4704C63.6466 37.3788 63.6808 37.2655 63.674 37.1509ZM63.5776 35.5163C63.58 35.4634 63.5706 35.4105 63.5501 35.3617C63.5295 35.3129 63.4984 35.2692 63.4589 35.2339C63.3445 35.147 63.2013 35.1072 63.0585 35.1225H62.3614V35.9472H63.0362C63.1087 35.9558 63.1821 35.9482 63.2513 35.9251C63.3206 35.902 63.3838 35.8639 63.4367 35.8135C63.4813 35.7748 63.517 35.7268 63.5414 35.673C63.5657 35.6191 63.5781 35.5606 63.5776 35.5014V35.5163ZM64.601 37.1509C64.6049 37.3243 64.572 37.4965 64.5046 37.6562C64.4366 37.7999 64.3408 37.9287 64.2228 38.0351C64.1042 38.1447 63.9658 38.2304 63.8149 38.2877C63.6586 38.3473 63.4927 38.3775 63.3255 38.3769H61.4566V34.2978H63.1846C63.3806 34.2925 63.5761 34.3201 63.763 34.3795C63.9177 34.4311 64.0612 34.5118 64.1857 34.6172C64.3019 34.719 64.3932 34.8461 64.4527 34.9888C64.5134 35.1372 64.5437 35.2964 64.5417 35.4569C64.5372 35.6127 64.4966 35.7653 64.423 35.9027C64.3404 36.066 64.2004 36.193 64.03 36.2593C64.1209 36.2914 64.2043 36.342 64.2747 36.4079C64.3441 36.4735 64.404 36.5486 64.4527 36.6308C64.5035 36.711 64.541 36.7988 64.5639 36.8909C64.5902 36.975 64.6027 37.0628 64.601 37.1509ZM56.0726 37.032C56.1083 37.1753 56.1857 37.3046 56.2951 37.4036C56.4146 37.505 56.5689 37.5557 56.7252 37.5447C56.8291 37.5489 56.9327 37.5312 57.0293 37.4927C57.1057 37.4511 57.1756 37.3985 57.2369 37.3367C57.296 37.2716 57.3415 37.1953 57.3708 37.1124C57.4001 37.0295 57.4125 36.9415 57.4075 36.8537V36.7051H56.2877V35.9175H57.4075V35.7689C57.4148 35.6898 57.4148 35.6102 57.4075 35.5312C57.3898 35.4523 57.3543 35.3786 57.3036 35.3157C57.2498 35.2489 57.1813 35.1955 57.1034 35.1596C56.9993 35.1202 56.8883 35.1025 56.7771 35.1076C56.6194 35.1032 56.465 35.153 56.3396 35.2488C56.2212 35.3348 56.1392 35.462 56.1097 35.6055L55.2494 35.3008C55.3508 35 55.5457 34.7396 55.8056 34.5578C56.1008 34.3652 56.4472 34.2668 56.7994 34.2755C57.0526 34.2659 57.3051 34.3089 57.541 34.4018C57.7258 34.4801 57.8888 34.6025 58.0156 34.7584C58.1389 34.9062 58.2299 35.0784 58.2826 35.2637C58.3361 35.4623 58.3635 35.6672 58.3641 35.8729V36.8463C58.3652 37.066 58.3302 37.2844 58.2603 37.4927C58.1986 37.6804 58.0975 37.8527 57.9637 37.998C57.8242 38.1441 57.6546 38.2582 57.4668 38.3323C57.2432 38.4128 57.0072 38.453 56.7697 38.4512C56.4254 38.4613 56.0863 38.3653 55.7982 38.1763C55.5438 37.9922 55.3543 37.7321 55.2568 37.4333L56.0726 37.032ZM173.535 11.9627L177.243 7.25204H183.873L176.865 16.1682L173.535 11.9627ZM105.841 7.25204V22.2906C105.841 23.1583 105.668 24.0173 105.335 24.818C105.001 25.6188 104.513 26.3457 103.898 26.9568C103.287 27.5716 102.56 28.0594 101.759 28.3922C100.959 28.725 100.1 28.8962 99.2338 28.896H87.294C85.5453 28.8921 83.8692 28.1954 82.6312 26.9579C81.3933 25.7205 80.6942 24.0427 80.6864 22.2906V7.25204H85.8776V22.2906C85.8775 22.4726 85.9142 22.6527 85.9856 22.82C86.057 22.9873 86.1615 23.1383 86.2929 23.264C86.4193 23.3942 86.5703 23.4981 86.737 23.5695C86.9038 23.6409 87.083 23.6785 87.2644 23.6801H99.2042C99.3856 23.6789 99.5649 23.6415 99.7317 23.5701C99.8985 23.4986 100.049 23.3946 100.176 23.264C100.436 23.0041 100.583 22.6514 100.584 22.2832V7.25204H105.841ZM77.7496 28.896H61.1155C59.371 28.8787 57.7025 28.1777 56.4675 26.9431C55.2325 25.7085 54.529 24.0385 54.5078 22.2906V13.8797C54.5137 12.1264 55.212 10.4467 56.4501 9.20763C57.6882 7.96854 59.3655 7.27082 61.1155 7.2669H77.7496V12.468H61.1155C60.748 12.4689 60.3959 12.6159 60.1366 12.8767C59.8801 13.1355 59.7362 13.4853 59.7361 13.85V22.2906C59.7351 22.4734 59.7703 22.6545 59.8397 22.8235C59.909 22.9925 60.0111 23.1461 60.1401 23.2753C60.2691 23.4045 60.4223 23.5068 60.591 23.5763C60.7597 23.6458 60.9405 23.6811 61.1229 23.6801H77.757L77.7496 28.896ZM133.414 17.9886C133.715 18.6171 133.872 19.305 133.874 20.0022V24.2596C133.872 24.8677 133.751 25.4695 133.517 26.0305C133.283 26.5915 132.94 27.1007 132.509 27.5289C132.082 27.9596 131.573 28.3015 131.013 28.5348C130.453 28.7682 129.853 28.8884 129.246 28.8886H108.704C108.756 21.6814 108.704 14.4964 108.704 7.27433H129.246C129.854 7.27398 130.456 7.39392 131.017 7.62726C131.578 7.8606 132.088 8.20275 132.517 8.63405C133.363 9.50514 133.837 10.6728 133.837 11.8884V15.923C133.853 16.6347 133.709 17.3408 133.414 17.9886ZM128.646 23.6727V20.5891H116.699V15.388H128.661V12.5349H114.57C114.57 16.2499 114.607 19.965 114.607 23.6801L128.646 23.6727ZM133.97 28.8738C135.58 25.6788 137.041 22.729 138.494 19.7793C140.408 15.9007 142.321 12.0148 143.982 8.76036L144.049 8.64148C144.436 8.01875 144.978 7.50726 145.621 7.15695C146.265 6.80664 146.988 6.62948 147.72 6.64277C148.466 6.61173 149.207 6.78142 149.865 7.1342C150.524 7.48698 151.076 8.00999 151.465 8.64891L151.546 8.79008L160.965 27.945L168.863 17.8697L160.542 7.25204H167.172L184.125 28.8738H177.495L172.185 22.0975L166.86 28.8738H150.946L144.716 25.9017L147.06 21.2356L153.334 24.2076L147.749 12.8395C146.11 16.0865 144.642 19.0734 143.166 22.0603C142.024 24.3637 140.89 26.6744 139.807 28.844L133.97 28.8738Z" fill="#828282"/>
<path d="M47.2994 0H0V46H47.2994V0Z" fill="#87D4F2"/>
<path d="M39.7498 7.37793H7.54199V38.7034H39.7498V7.37793Z" fill="#9EDAF0"/>
<path d="M34.6106 12.334H12.6814V33.6659H34.6106V12.334Z" fill="#B8E4F4"/>
<path d="M31.1175 15.7666H16.1816V30.2925H31.1175V15.7666Z" fill="#D1E8EF"/>
<path fill-rule="evenodd" clip-rule="evenodd" d="M25.133 26.0054L45.3713 44.1349L26.7571 24.4525C26.9783 24.0016 27.0933 23.506 27.0933 23.0036C27.0933 22.5012 26.9783 22.0056 26.7571 21.5547L45.3861 1.85742L25.1404 19.9721C24.6748 19.7593 24.169 19.6492 23.6572 19.6492C23.1454 19.6492 22.6396 19.7593 22.174 19.9721L1.92084 1.87228L20.535 21.5473C20.3157 21.996 20.2016 22.4891 20.2016 22.9887C20.2016 23.4884 20.3157 23.9815 20.535 24.4302L1.90601 44.1424L22.1592 26.0054C22.6261 26.2183 23.1331 26.3285 23.6461 26.3285C24.1591 26.3285 24.6661 26.2183 25.133 26.0054Z" fill="#EDF4F4"/>
</g>
<defs>
<clipPath id="clip0_0_55">
<rect width="185" height="46" fill="white"/>
</clipPath>
</defs>
</svg>
