<svg width="175" height="54" viewBox="0 0 175 54" fill="none" xmlns="http://www.w3.org/2000/svg">
<path fill-rule="evenodd" clip-rule="evenodd" d="M25.7217 42.064C27.5014 41.2698 29.323 42.1476 30.1186 43.8405C31.1864 46.1604 29.6999 50.0687 27.3967 53.5381H33.343C34.9971 49.8806 35.7299 47.5816 35.7299 45.199C35.7299 39.6396 30.9771 36.5046 27.0408 36.5046C20.5711 36.5046 16.5511 43.1926 19.1264 48.8774L23.9211 46.5157C23.3768 45.3871 23.5442 43.0254 25.7217 42.064Z" fill="#63AFCD"/>
<path fill-rule="evenodd" clip-rule="evenodd" d="M45.0053 8.62405C52.3963 8.62405 61.1272 15.5419 61.0225 24.7379L66.1104 36.5046H61.3785C61.3785 40.2666 61.3785 44.0078 61.3785 47.7698H52.2916L49.9466 53.5173H37.9913C41.7391 46.3904 40.441 41.019 37.5516 37.1316C35.1857 33.9757 34.076 30.6735 34.076 27.9356C34.076 21.4566 39.415 16.8378 44.3144 16.8169C48.5228 16.796 51.7682 19.8265 51.7682 23.4213C51.7682 26.2219 50.3235 29.2733 47.4969 30.1929C46.1988 30.6108 45.11 30.0047 44.6075 29.1269C43.8328 27.7475 44.5447 26.4099 45.5707 25.762C46.1988 25.3649 46.7641 24.6752 46.7222 23.672C46.6803 22.1672 45.2566 21.0386 43.7282 21.3939C41.2994 21.9583 38.9963 24.6125 38.9963 27.8729C38.9963 31.9066 43.0163 35.2506 46.7641 35.2506C52.0613 35.2506 56.9397 29.6285 56.4791 23.6929C56.0394 18.0081 51.2866 13.2011 45.0263 13.2011C40.7132 13.2011 38.5357 13.9535 33.2594 18.238C28.3182 22.3971 22.0997 23.8392 17.3469 19.2621C13.0757 15.1657 14.1853 7.16105 19.5035 4.56945C24.1935 2.29135 28.4228 3.48265 31.4169 6.95205L27.7319 9.58545C26.5385 8.03885 23.67 7.16105 21.346 8.72855C18.9172 10.3587 18.6869 13.3892 19.9641 15.312C22.2044 18.6978 26.2663 17.8619 29.2185 15.6674C35.2066 11.1739 37.6144 8.62405 45.0053 8.62405Z" fill="#63AFCD"/>
<path fill-rule="evenodd" clip-rule="evenodd" d="M55.6415 8.89587L58.2587 5.17566C55.2437 3.06476 51.7052 1.62266 47.8109 1.07926L47.1827 5.59366C50.3443 6.01166 53.2127 7.18207 55.6415 8.89587ZM43.5815 5.40556L43.3512 0.849365C39.6662 1.03747 35.9812 2.06156 32.5684 4.02616L34.8505 7.97626C37.6143 6.38786 40.6084 5.55186 43.5815 5.40556Z" fill="#63AFCD"/>
<path fill-rule="evenodd" clip-rule="evenodd" d="M23.984 14.4344C24.9262 14.4344 25.7008 13.6611 25.7008 12.7206C25.7008 11.7801 24.9262 11.0068 23.984 11.0068C23.0418 11.0068 22.2671 11.7801 22.2671 12.7206C22.2671 13.6611 23.0208 14.4344 23.984 14.4344Z" fill="#63AFCD"/>
<path fill-rule="evenodd" clip-rule="evenodd" d="M7.69473 18.5934C9.39066 16.9005 12.1125 16.9005 13.8085 18.5934C15.5044 20.2863 15.5044 23.0033 13.8085 24.6962C12.1125 26.3891 9.39066 26.3891 7.69473 24.6962C6.01973 23.0033 6.01973 20.2654 7.69473 18.5934ZM8.76253 21.6448L10.7516 23.6303L12.7407 21.6448L10.7516 19.6593L8.76253 21.6448Z" fill="#63AFCD"/>
<path fill-rule="evenodd" clip-rule="evenodd" d="M8.63678 8.64502C10.5421 8.64502 12.0915 10.1916 12.0705 12.1144C12.0705 14.0163 10.5211 15.5629 8.61584 15.542C6.71052 15.542 5.16116 13.9954 5.18209 12.0935C5.18209 10.1707 6.73147 8.64502 8.63678 8.64502ZM7.50615 10.9649V13.2012H9.74647V10.9649H7.50615Z" fill="#63AFCD"/>
<path d="M12.1858 3.57507L10.6841 5.23462L12.3466 6.73361L13.8483 5.07406L12.1858 3.57507Z" fill="#63AFCD"/>
<path fill-rule="evenodd" clip-rule="evenodd" d="M7.00371 26.849C4.90996 29.357 2.81622 31.865 0.743408 34.373L3.29779 36.5048L7.44341 31.5515L12.4056 35.6898L16.5512 30.7365L21.5134 34.8746L25.659 29.9213L30.6212 34.0386L32.7568 31.4888C30.2443 29.3988 27.7318 27.3088 25.2193 25.2397C23.8375 26.8908 22.4556 28.5419 21.0737 30.193C19.4197 28.8136 17.7656 27.4342 16.1115 26.0548C14.7297 27.7059 13.3478 29.357 11.9659 31.0081C10.3118 29.6078 8.65778 28.2284 7.00371 26.849Z" fill="#63AFCD"/>
<path fill-rule="evenodd" clip-rule="evenodd" d="M7.25488 37.675L15.9858 37.6959V37.7168L8.6577 41.9386L10.1024 44.4257L11.4843 46.8292L13.9758 45.3871L12.573 42.9836L15.9858 41.0399V48.125H7.25488V37.675Z" fill="#63AFCD"/>
<path fill-rule="evenodd" clip-rule="evenodd" d="M84.2211 18.907H87.5292V31.7187H84.2211V30.3811C83.4255 31.1753 81.8761 32.0113 80.1802 32.0113C76.5789 32.0113 73.8152 28.8554 73.8152 25.3024C73.8152 21.7494 76.4952 18.5935 80.1802 18.5935C81.9808 18.5935 83.4255 19.4504 84.2211 20.3073V18.907ZM170.714 18.907H174.022V31.7187H170.714V30.3811C169.918 31.1753 168.369 32.0113 166.673 32.0113C163.072 32.0113 160.308 28.8554 160.308 25.3024C160.308 21.7494 162.988 18.5935 166.673 18.5935C168.474 18.5935 169.918 19.4504 170.714 20.3073V18.907ZM167.092 28.9181C168.976 28.9181 170.693 27.4133 170.693 25.3233C170.693 23.4632 169.206 21.7285 167.092 21.7285C165.186 21.7285 163.491 23.2333 163.491 25.3233C163.491 27.2043 164.977 28.9181 167.092 28.9181ZM80.5989 28.9181C82.4833 28.9181 84.2002 27.4133 84.2002 25.3233C84.2002 23.4632 82.7136 21.7285 80.5989 21.7285C78.6936 21.7285 76.9977 23.2333 76.9977 25.3233C76.9977 27.2043 78.4842 28.9181 80.5989 28.9181ZM153.545 31.9695C149.776 31.9695 146.845 28.8972 146.845 25.3024C146.845 21.6658 149.735 18.5935 153.545 18.5935C155.911 18.5935 158.11 19.8475 159.303 21.8748L156.518 23.505C155.932 22.5227 154.822 21.7912 153.587 21.7912C151.535 21.7912 150.09 23.4423 150.09 25.2815C150.09 27.267 151.577 28.7718 153.587 28.7718C154.822 28.7718 155.953 28.0194 156.518 26.9953L159.303 28.6673C158.151 30.6737 155.953 31.9695 153.545 31.9695Z" fill="#63AFCD"/>
<path fill-rule="evenodd" clip-rule="evenodd" d="M80.5991 39.3054C79.95 39.2427 79.4894 39.3681 79.1753 39.6398C78.8613 39.9115 78.7147 40.3504 78.7147 40.9983V41.27H80.5991V42.106H78.7147V47.8117H77.8563V42.0851H76.7466V41.2491H77.8563V40.9774C77.8563 40.1205 78.0866 39.4726 78.5681 39.0337C79.0497 38.5948 79.7197 38.4067 80.5991 38.4694V39.3054ZM82.3788 42.3359C82.7766 41.5417 83.4675 41.1446 84.4516 41.1446V41.9806C83.8653 41.9806 83.3628 42.1478 82.965 42.5031C82.5672 42.8584 82.3788 43.4018 82.3788 44.1542V47.7908H81.5203V41.2491H82.3788V42.3359ZM88.2831 41.1028C89.2463 41.1028 90.0419 41.4372 90.6491 42.1269C91.2563 42.8166 91.5494 43.6317 91.5494 44.5513C91.5494 44.6558 91.5494 44.7812 91.5285 44.9484H85.7706C85.8544 45.6172 86.1475 46.1397 86.6081 46.5368C87.0897 46.9339 87.676 47.122 88.3669 47.122C88.8694 47.122 89.2881 47.0175 89.665 46.8085C90.021 46.5995 90.2931 46.3278 90.4816 45.9934L91.2353 46.4323C90.9422 46.8921 90.5444 47.2683 90.0628 47.54C89.5603 47.8117 88.995 47.9371 88.3459 47.9371C87.32 47.9371 86.4825 47.6236 85.8334 46.9757C85.1844 46.3278 84.8703 45.5127 84.8703 44.5095C84.8703 43.5272 85.1844 42.7121 85.8334 42.0642C86.4616 41.4163 87.2781 41.1028 88.2831 41.1028ZM88.2831 41.9388C87.5922 41.9388 87.0269 42.1478 86.5663 42.5449C86.1056 42.942 85.8335 43.4854 85.7497 44.1333H90.6491C90.5653 43.4436 90.2931 42.9002 89.8535 42.524C89.3928 42.1269 88.8694 41.9388 88.2831 41.9388ZM95.9463 41.1028C96.9094 41.1028 97.705 41.4372 98.3122 42.1269C98.9194 42.8166 99.2125 43.6317 99.2125 44.5513C99.2125 44.6558 99.2125 44.7812 99.1916 44.9484H93.4338C93.5175 45.6172 93.8106 46.1397 94.2713 46.5368C94.7528 46.9339 95.3391 47.122 96.03 47.122C96.5325 47.122 96.9513 47.0175 97.3281 46.8085C97.6841 46.5995 97.9563 46.3278 98.1447 45.9934L98.8985 46.4323C98.6053 46.8921 98.2075 47.2683 97.726 47.54C97.2235 47.8117 96.6581 47.9371 96.0091 47.9371C94.9831 47.9371 94.1456 47.6236 93.4966 46.9757C92.8475 46.3278 92.5334 45.5127 92.5334 44.5095C92.5334 43.5272 92.8475 42.7121 93.4966 42.0642C94.1247 41.4163 94.9413 41.1028 95.9463 41.1028ZM95.9463 41.9388C95.2553 41.9388 94.69 42.1478 94.2294 42.5449C93.7688 42.942 93.4966 43.4854 93.4128 44.1333H98.3122C98.2285 43.4436 97.9563 42.9002 97.5166 42.524C97.056 42.1269 96.5325 41.9388 95.9463 41.9388ZM100.573 47.8117V38.2395H101.432V47.8117H100.573ZM108.928 41.2491H109.786V47.7908H108.928V46.5159C108.32 47.4773 107.441 47.958 106.268 47.958C105.326 47.958 104.531 47.6236 103.882 46.9548C103.212 46.286 102.898 45.4709 102.898 44.5095C102.898 43.5481 103.233 42.733 103.882 42.0642C104.552 41.3954 105.347 41.061 106.268 41.061C107.441 41.061 108.32 41.5417 108.928 42.5031V41.2491ZM104.51 46.3696C105.012 46.8712 105.619 47.122 106.352 47.122C107.085 47.122 107.692 46.8712 108.195 46.3696C108.697 45.868 108.948 45.2619 108.948 44.5304C108.948 43.7989 108.697 43.1928 108.195 42.6912C107.692 42.1896 107.085 41.9388 106.352 41.9388C105.619 41.9388 105.012 42.1896 104.51 42.6912C104.007 43.1928 103.756 43.7989 103.756 44.5304C103.756 45.2619 104.007 45.868 104.51 46.3696ZM114.706 41.1028C115.502 41.1028 116.13 41.3536 116.591 41.8343C117.051 42.315 117.282 42.9629 117.282 43.7989V47.8117H116.423V43.7989C116.423 43.2137 116.277 42.7539 115.963 42.4404C115.648 42.1269 115.209 41.9597 114.643 41.9597C114.015 41.9597 113.492 42.1687 113.115 42.5658C112.717 42.9629 112.529 43.569 112.529 44.405V47.8326H111.67V41.2491H112.529V42.2732C112.989 41.4999 113.722 41.1028 114.706 41.1028ZM122.013 47.958C121.029 47.958 120.192 47.6236 119.543 46.9757C118.894 46.3278 118.559 45.4918 118.559 44.5304C118.559 43.569 118.894 42.7539 119.543 42.0851C120.192 41.4163 121.029 41.1028 122.013 41.1028C122.663 41.1028 123.249 41.2491 123.751 41.5626C124.275 41.8761 124.652 42.2941 124.882 42.8166L124.17 43.2137C124.003 42.8166 123.709 42.5031 123.333 42.2732C122.935 42.0433 122.495 41.9179 122.013 41.9179C121.281 41.9179 120.673 42.1687 120.171 42.6703C119.668 43.1719 119.417 43.778 119.417 44.5095C119.417 45.241 119.668 45.8471 120.171 46.3487C120.673 46.8503 121.281 47.1011 122.013 47.1011C122.495 47.1011 122.935 46.9757 123.333 46.7458C123.709 46.5159 124.023 46.2024 124.233 45.8053L124.945 46.2233C124.673 46.7458 124.275 47.1638 123.751 47.4773C123.228 47.8117 122.663 47.958 122.013 47.958ZM129.174 41.1028C130.137 41.1028 130.933 41.4372 131.54 42.1269C132.147 42.8166 132.44 43.6317 132.44 44.5513C132.44 44.6558 132.44 44.7812 132.419 44.9484H126.641C126.724 45.6172 127.018 46.1397 127.478 46.5368C127.96 46.9339 128.546 47.122 129.237 47.122C129.739 47.122 130.158 47.0175 130.535 46.8085C130.891 46.5995 131.163 46.3278 131.352 45.9934L132.105 46.4323C131.812 46.8921 131.414 47.2683 130.933 47.54C130.43 47.8117 129.865 47.9371 129.216 47.9371C128.19 47.9371 127.353 47.6236 126.703 46.9757C126.054 46.3278 125.74 45.5127 125.74 44.5095C125.74 43.5272 126.054 42.7121 126.703 42.0642C127.353 41.4163 128.169 41.1028 129.174 41.1028ZM129.174 41.9388C128.483 41.9388 127.918 42.1478 127.457 42.5449C126.997 42.942 126.724 43.4854 126.641 44.1333H131.54C131.456 43.4436 131.184 42.9002 130.744 42.524C130.284 42.1269 129.76 41.9388 129.174 41.9388ZM134.388 47.7281C134.241 47.8744 134.073 47.9371 133.885 47.9371C133.676 47.9371 133.508 47.8744 133.383 47.7281C133.236 47.5818 133.173 47.4146 133.173 47.2265C133.173 47.0175 133.236 46.8503 133.383 46.7249C133.529 46.5786 133.697 46.5159 133.885 46.5159C134.094 46.5159 134.262 46.5786 134.388 46.7249C134.534 46.8712 134.597 47.0384 134.597 47.2265C134.597 47.4146 134.513 47.5818 134.388 47.7281ZM141.423 38.6366H142.281V47.8117H141.423V46.5368C140.815 47.4982 139.936 47.9789 138.763 47.9789C137.821 47.9789 137.026 47.6445 136.377 46.9757C135.707 46.3069 135.393 45.4918 135.393 44.5304C135.393 43.569 135.728 42.7539 136.377 42.0851C137.047 41.4163 137.842 41.0819 138.763 41.0819C139.936 41.0819 140.815 41.5626 141.423 42.524V38.6366ZM137.005 46.3696C137.507 46.8712 138.114 47.122 138.847 47.122C139.58 47.122 140.187 46.8712 140.69 46.3696C141.192 45.868 141.443 45.2619 141.443 44.5304C141.443 43.7989 141.192 43.1928 140.69 42.6912C140.187 42.1896 139.58 41.9388 138.847 41.9388C138.114 41.9388 137.507 42.1896 137.005 42.6912C136.502 43.1928 136.251 43.7989 136.251 44.5304C136.251 45.2619 136.502 45.868 137.005 46.3696ZM145.003 39.6816C144.877 39.807 144.731 39.8697 144.563 39.8697C144.396 39.8697 144.249 39.807 144.123 39.6816C143.998 39.5562 143.935 39.4099 143.935 39.2427C143.935 39.0755 143.998 38.9292 144.123 38.8038C144.249 38.6784 144.396 38.6157 144.563 38.6157C144.731 38.6157 144.877 38.6784 145.003 38.8038C145.128 38.9292 145.191 39.0755 145.191 39.2427C145.191 39.4099 145.128 39.5562 145.003 39.6816ZM144.123 47.8117V41.2491H144.982V47.7908H144.123V47.8117ZM152.478 41.2491H153.336V47.54C153.336 48.4805 153.022 49.2329 152.373 49.7763C151.724 50.3197 150.949 50.5914 150.049 50.5914C148.499 50.5914 147.473 50.048 146.929 49.003L147.683 48.5641C148.081 49.3583 148.855 49.7554 150.028 49.7554C150.782 49.7554 151.368 49.5464 151.808 49.1493C152.247 48.7522 152.457 48.2088 152.457 47.54V46.5159C151.849 47.4773 150.97 47.958 149.798 47.958C148.855 47.958 148.06 47.6236 147.411 46.9548C146.741 46.286 146.427 45.4709 146.427 44.5095C146.427 43.5481 146.762 42.733 147.411 42.0642C148.081 41.3954 148.876 41.061 149.798 41.061C150.97 41.061 151.849 41.5417 152.457 42.5031V41.2491H152.478ZM148.039 46.3696C148.541 46.8712 149.148 47.122 149.881 47.122C150.614 47.122 151.221 46.8712 151.724 46.3696C152.226 45.868 152.478 45.2619 152.478 44.5304C152.478 43.7989 152.226 43.1928 151.724 42.6912C151.221 42.1896 150.614 41.9388 149.881 41.9388C149.148 41.9388 148.541 42.1896 148.039 42.6912C147.536 43.1928 147.285 43.7989 147.285 44.5304C147.306 45.2619 147.557 45.868 148.039 46.3696ZM156.058 39.6816C155.932 39.807 155.786 39.8697 155.618 39.8697C155.451 39.8697 155.304 39.807 155.178 39.6816C155.053 39.5562 154.99 39.4099 154.99 39.2427C154.99 39.0755 155.053 38.9292 155.178 38.8038C155.304 38.6784 155.451 38.6157 155.618 38.6157C155.786 38.6157 155.932 38.6784 156.058 38.8038C156.183 38.9292 156.246 39.0755 156.246 39.2427C156.246 39.4099 156.183 39.5562 156.058 39.6816ZM155.178 47.8117V41.2491H156.037V47.7908H155.178V47.8117ZM161.355 42.0851H159.471V46.0561C159.471 46.4114 159.533 46.6622 159.68 46.8294C159.827 46.9757 160.036 47.0593 160.308 47.0593C160.58 47.0593 160.936 47.0593 161.355 47.0384V47.7908C160.434 47.9371 159.743 47.8744 159.282 47.6027C158.822 47.331 158.591 46.8085 158.591 46.0561V42.0851H157.209V41.2491H158.591V39.6816L159.45 39.4099V41.2491H161.334V42.0851H161.355ZM168.055 41.2491H168.913V47.7908H168.055V46.5159C167.448 47.4773 166.568 47.958 165.396 47.958C164.454 47.958 163.658 47.6236 163.009 46.9548C162.339 46.286 162.025 45.4709 162.025 44.5095C162.025 43.5481 162.36 42.733 163.009 42.0642C163.679 41.3954 164.475 41.061 165.396 41.061C166.568 41.061 167.448 41.5417 168.055 42.5031V41.2491ZM163.637 46.3696C164.14 46.8712 164.747 47.122 165.48 47.122C166.213 47.122 166.82 46.8712 167.322 46.3696C167.825 45.868 168.076 45.2619 168.076 44.5304C168.076 43.7989 167.825 43.1928 167.322 42.6912C166.82 42.1896 166.213 41.9388 165.48 41.9388C164.747 41.9388 164.14 42.1896 163.637 42.6912C163.135 43.1928 162.883 43.7989 162.883 44.5304C162.883 45.2619 163.135 45.868 163.637 46.3696ZM170.756 47.8117V38.2395H171.614V47.8117H170.756Z" fill="#63AFCD"/>
<path fill-rule="evenodd" clip-rule="evenodd" d="M91.0469 13.8701C91.0469 19.8266 91.0469 25.7622 91.0469 31.7187H94.355V24.8008H101.327V21.4986H94.355V17.1723H101.537V13.8701H91.0469ZM145.212 31.7187V28.4165H137.549V24.4455H144.584V21.1433H137.549V17.1723H145.212V13.8701H134.241C134.241 19.8266 134.241 25.7622 134.241 31.7187H145.212ZM131.372 31.7187V28.4165H123.709V24.4455H130.744V21.1433H123.709V17.1723H131.372V13.8701H120.401C120.401 19.8266 120.401 25.7622 120.401 31.7187H131.372ZM118.098 31.7187L113.764 24.55C115.983 23.8394 117.575 21.7703 117.575 19.3459C117.575 16.3363 115.125 13.8701 112.089 13.8701H104.384C104.384 19.8266 104.384 25.7622 104.384 31.7187H107.692V24.8008H110.184L114.371 31.7187C115.607 31.7187 116.842 31.7187 118.098 31.7187ZM112.089 21.4986H107.692V17.1723H112.089C113.282 17.1723 114.267 18.1337 114.267 19.3459C114.246 20.5163 113.282 21.4986 112.089 21.4986Z" fill="#63AFCD"/>
</svg>
