<svg width="19" height="22" viewBox="0 0 19 22" fill="none" xmlns="http://www.w3.org/2000/svg">
<path fill-rule="evenodd" clip-rule="evenodd" d="M8.68423 0.0408353C7.62451 0.213953 6.8606 0.567155 6.19094 1.1936C5.11231 2.20263 4.6726 3.48589 4.67609 5.61449C4.67941 7.61538 5.12799 9.17374 6.02292 10.2932C6.9158 11.4101 8.40816 11.9786 10.006 11.8105C11.1514 11.6899 11.985 11.2996 12.7164 10.5413C13.4006 9.83197 13.8719 8.86174 14.1172 7.65749C14.3501 6.5147 14.3613 4.75703 14.1427 3.68568C13.7483 1.75321 12.438 0.452145 10.5186 0.0871577C10.028 -0.00613221 9.1132 -0.0292289 8.68423 0.0408353ZM10.5186 1.35244C11.954 1.72788 12.7726 2.73368 12.9909 4.39066C13.0753 5.03053 13.0639 6.4347 12.9698 7.01233C12.8348 7.84054 12.6897 8.3106 12.3914 8.88509C11.7562 10.1083 10.7495 10.6591 9.27383 10.591C8.34593 10.5481 7.8072 10.3262 7.22113 9.74543C6.47714 9.00815 6.10639 8.05723 5.94929 6.48343C5.88771 5.86657 5.92317 4.66529 6.01869 4.13062C6.30331 2.5376 7.212 1.56913 8.68423 1.28952C9.13429 1.20406 10.0746 1.23631 10.5186 1.35244ZM6.04022 11.8873C5.95711 11.9308 5.70235 12.0791 5.47415 12.2167C4.71557 12.6742 3.62712 13.1637 2.7041 13.4623C1.65058 13.8032 1.39238 13.9339 0.995336 14.3271C0.29602 15.0197 0.00606486 15.9587 0.000125132 17.5499C-0.00428599 18.7244 0.107914 19.4397 0.338996 19.7101C0.481593 19.877 1.5055 20.3882 2.37327 20.7257C7.32735 22.6525 13.6369 22.3739 18.172 20.028C18.635 19.7886 18.7672 19.6401 18.8535 19.2628C18.9548 18.82 19.0243 17.7887 18.992 17.2058C18.92 15.9056 18.6693 15.1054 18.1362 14.4745C17.7499 14.0174 17.3302 13.7907 16.2621 13.4624C15.3603 13.1852 14.3827 12.7414 13.4666 12.1936C13.0625 11.9519 12.822 11.835 12.7023 11.8221C12.2386 11.7722 11.8892 12.2652 12.0912 12.6845C12.2878 13.0924 14.3745 14.1653 15.8687 14.6267C16.217 14.7342 16.6046 14.8719 16.73 14.9326C17.1689 15.1452 17.4958 15.6272 17.6471 16.2851C17.705 16.5368 17.72 16.8203 17.7187 17.6359C17.7177 18.2037 17.6982 18.7242 17.6753 18.7926C17.6443 18.8856 17.5623 18.9534 17.3517 19.0605C15.6343 19.9344 13.2845 20.5443 10.9771 20.7151C10.1192 20.7786 8.01317 20.741 7.26481 20.6489C5.18215 20.3925 3.23571 19.8489 1.72535 19.1019L1.33071 18.9067L1.29516 18.7014C1.27559 18.5885 1.26083 18.0703 1.26236 17.5499C1.26551 16.497 1.31446 16.1689 1.53878 15.6968C1.7848 15.1791 2.11013 14.9249 2.76634 14.7377C3.4867 14.5321 4.27184 14.2203 5.10292 13.8095C6.19496 13.2699 6.7446 12.9248 6.87444 12.6973C7.17008 12.1793 6.57864 11.605 6.04022 11.8873Z" fill="#63AFCD"/>
</svg>
