<svg width="45" height="45" viewBox="0 0 45 45" fill="none" xmlns="http://www.w3.org/2000/svg">
<circle cx="22.5" cy="22.5" r="22" stroke="#728095"/>
<path fill-rule="evenodd" clip-rule="evenodd" d="M21.3658 13.0876C18.6661 13.5764 16.5481 15.7566 16.0848 18.5236C16.0058 18.9955 16 19.2668 16 22.5015C16 25.7362 16.0058 26.0076 16.0848 26.4794C16.536 29.1738 18.5126 31.2757 21.161 31.8774C21.7895 32.0203 22.8959 32.0416 23.5688 31.9238C26.3212 31.4423 28.4466 29.2779 28.9152 26.4794C28.9942 26.0076 29 25.7362 29 22.5015C29 19.2668 28.9942 18.9955 28.9152 18.5236C28.4485 15.737 26.3216 13.5615 23.5972 13.0842C22.9488 12.9706 22.0039 12.9721 21.3658 13.0876ZM23.4369 14.9868C24.2983 15.1699 25.037 15.5654 25.6799 16.1878C26.1246 16.6183 26.3938 16.9949 26.6683 17.571C26.9256 18.1107 27.0596 18.5763 27.1246 19.155C27.18 19.6494 27.18 25.3537 27.1246 25.848C27.0395 26.6065 26.7612 27.3909 26.3537 28.0208C26.1446 28.3439 25.6518 28.8789 25.3356 29.126C23.9496 30.2089 22.107 30.416 20.5501 29.6639C20.0222 29.4089 19.7122 29.1949 19.3207 28.8152C18.7782 28.2892 18.4437 27.7826 18.1671 27.0684C17.8494 26.2482 17.854 26.315 17.854 22.5015C17.854 18.688 17.8494 18.7548 18.1671 17.9346C18.5204 17.0222 19.1516 16.2079 19.8958 15.7042C20.4833 15.3066 21.2775 15.0044 21.9698 14.9151C22.3367 14.8678 23.0385 14.902 23.4369 14.9868ZM22.151 16.8613C21.9538 16.9487 21.7718 17.1268 21.6671 17.335C21.5897 17.4891 21.5839 17.6146 21.5839 19.1547C21.5839 20.5468 21.5946 20.835 21.6514 20.9741C21.9593 21.7278 23.0407 21.7278 23.3486 20.9741C23.4054 20.835 23.4161 20.5468 23.4161 19.1547C23.4161 17.6146 23.4103 17.4891 23.3329 17.335C23.1032 16.8783 22.5831 16.6699 22.151 16.8613Z" fill="#728095"/>
</svg>
