<svg width="32" height="34" viewBox="0 0 32 34" fill="none" xmlns="http://www.w3.org/2000/svg">
<path fill-rule="evenodd" clip-rule="evenodd" d="M8.57607 0.318093C6.46216 0.471417 4.66093 1.29755 3.23138 2.76949C2.24025 3.79001 1.59309 4.91474 1.20129 6.29772L1 7.00802V16.6665V26.325L1.20129 27.0353C2.06058 30.068 4.44506 32.2704 7.54831 32.8974C8.13357 33.0157 8.75847 33.0253 15.8649 33.0253C24.1226 33.0253 23.9816 33.0309 25.2003 32.6523C27.6054 31.905 29.6009 29.9711 30.4132 27.6004C30.8437 26.344 30.8375 26.4829 30.8375 18.1897V10.6078L26.7263 6.31062C24.4651 3.94711 22.2493 1.62958 21.8022 1.16055L20.9894 0.307686L14.9443 0.3012C11.6195 0.297565 8.7538 0.305192 8.57607 0.318093ZM19.3664 3.9608C19.3978 5.07761 19.4335 5.40949 19.5839 5.97973C20.2202 8.39193 21.7211 10.2362 23.9277 11.3173C25.0482 11.8662 25.9872 12.0868 27.4803 12.1519L28.5395 12.198V18.771C28.5395 24.2977 28.5224 25.4417 28.4317 25.958C28.0876 27.9165 26.8479 29.4788 25.0212 30.256C23.9308 30.7198 24.1552 30.7087 15.9008 30.7087C7.6464 30.7087 7.87081 30.7198 6.78043 30.256C5.10845 29.5447 3.98835 28.2594 3.45745 26.4431L3.29795 25.8973V16.6665V7.4357L3.46377 6.86546C4.0073 4.99578 5.28188 3.61238 7.06803 2.95368C7.90916 2.64347 8.06793 2.63591 13.8268 2.62992L19.3289 2.62429L19.3664 3.9608ZM25.0054 7.82774C26.1317 9.00622 26.8378 9.79715 26.7759 9.8109C26.5986 9.85053 25.5133 9.54716 25.031 9.32313C23.2272 8.4853 21.9318 6.69589 21.6779 4.69142L21.6282 4.29938L22.3802 5.08346C22.7937 5.5147 23.9751 6.74963 25.0054 7.82774ZM10.0482 10.3729C9.9692 10.3924 9.79951 10.4869 9.67111 10.583C9.01936 11.0705 9.07709 11.9637 9.79125 12.4414L10.0335 12.6035H15.9008H21.768L22.0103 12.4414C22.3738 12.1983 22.5792 11.8528 22.5792 11.4846C22.5792 11.089 22.4362 10.8123 22.1002 10.5579L21.8365 10.3582L16.0141 10.3479C12.8118 10.3422 10.1272 10.3534 10.0482 10.3729ZM9.94055 15.6054C9.84181 15.6449 9.68526 15.7474 9.59255 15.8332C9.03817 16.347 9.10819 17.1515 9.74824 17.6222C9.95017 17.7707 9.97631 17.7713 15.9008 17.7713C21.8253 17.7713 21.8514 17.7707 22.0534 17.6222C22.7584 17.1036 22.7584 16.2294 22.0534 15.7108C21.8519 15.5626 21.8131 15.5616 15.9853 15.5477C12.1865 15.5387 10.0567 15.559 9.94055 15.6054ZM9.78673 20.8833C9.29202 21.168 9.074 21.8773 9.33001 22.3688C9.38918 22.4824 9.55636 22.6652 9.70142 22.7751L9.96518 22.9748H15.9008H21.8364L22.1077 22.7694C22.7745 22.2645 22.7282 21.3717 22.0103 20.8915L21.768 20.7295L15.9081 20.7311C10.0769 20.7327 10.0469 20.7334 9.78673 20.8833Z" fill="#63AFCD" stroke="#172334" stroke-width="0.5"/>
</svg>
