<svg width="33" height="31" viewBox="0 0 33 31" fill="none" xmlns="http://www.w3.org/2000/svg">
<path fill-rule="evenodd" clip-rule="evenodd" d="M5.96008 1.04176C5.33366 1.14838 4.69375 1.50522 4.24368 1.99896C3.7296 2.56294 3.4772 3.2118 3.4772 3.96925C3.4772 4.36096 3.50409 4.47977 3.66426 4.79598C3.78992 5.04393 3.9421 5.23357 4.12765 5.37334C4.59661 5.72647 4.81347 5.75986 6.63996 5.75986H8.26679L8.4154 5.61322C8.60488 5.42639 8.60488 5.19738 8.4154 5.01054L8.26679 4.8639H6.68756C4.97855 4.8639 4.8538 4.84472 4.56724 4.53812C4.43099 4.39232 4.41609 4.32733 4.41827 3.88831C4.42015 3.50358 4.45012 3.34093 4.56022 3.11879C4.78035 2.67445 5.13503 2.32126 5.57638 2.10701C5.9235 1.93845 6.03571 1.9139 6.4664 1.91217C7.07343 1.90972 7.46948 2.07051 7.98065 2.5271C8.36653 2.87187 8.49509 2.89773 8.86825 2.70587C9.40776 2.42848 10.012 2.50619 10.481 2.91332C10.7614 3.15684 10.9826 3.52968 10.9851 3.76341C10.9858 3.83157 11.0477 3.94416 11.1226 4.01357C11.2503 4.13183 11.3348 4.14097 12.4604 4.15841C13.6483 4.17675 13.6632 4.1786 13.7806 4.32172C13.855 4.41251 13.8925 4.53496 13.8811 4.65024L13.8629 4.83403L11.7834 4.8639L9.70383 4.89376L9.58816 5.03479C9.43077 5.22653 9.44282 5.43738 9.62111 5.61322L9.76972 5.75986H11.9782H14.1867L14.3816 5.59805C14.9111 5.15861 14.945 4.22292 14.4501 3.70858C14.0919 3.33633 13.8983 3.28407 12.796 3.26173L11.7897 3.24136L11.6454 2.93661C11.1934 1.98187 10.0086 1.44985 8.93765 1.72067L8.5542 1.81761L8.29713 1.60987C7.693 1.12157 6.78639 0.901217 5.96008 1.04176ZM20.7723 3.08785C20.307 3.35031 20.282 3.40891 18.8345 7.62849C18.0819 9.82247 17.4661 11.6582 17.4661 11.7078C17.4661 11.8607 17.7495 12.0914 17.9372 12.0914C18.1855 12.0914 18.3338 11.8985 18.5232 11.3298C18.6134 11.0588 18.6955 10.837 18.7056 10.837C18.7158 10.837 18.8804 11.0255 19.0715 11.2558C19.6789 11.9881 19.8084 11.9475 20.5905 10.7798C20.9204 10.287 21.204 9.88382 21.2207 9.88382C21.2373 9.88382 21.5643 10.4892 21.9474 11.2291C22.3304 11.9692 22.6925 12.6271 22.7521 12.6914C22.903 12.8539 23.2241 12.845 23.3839 12.6737C23.4528 12.5999 23.6798 12.2034 23.8881 11.7927C24.0964 11.3821 24.2784 11.0792 24.2927 11.1195C24.3068 11.16 24.8434 12.6161 25.4851 14.3555L26.6518 17.5179L26.1466 18.3723C25.8687 18.8422 25.6414 19.2889 25.6414 19.3651C25.6414 19.5021 25.8843 19.7967 25.9974 19.7967C26.0297 19.7967 25.7178 20.3679 25.3043 21.066C24.8909 21.7641 24.5523 22.3808 24.552 22.4364C24.5517 22.4921 24.6149 22.6105 24.6925 22.6995C24.8061 22.8298 24.899 22.8667 25.1689 22.8887L25.5041 22.9161L24.7205 24.2379C24.2895 24.9649 23.9222 25.632 23.9043 25.7205C23.8799 25.8407 23.911 25.92 24.0271 26.0346L24.1825 26.1879H25.3359H26.4892V26.7276C26.4892 27.2347 26.4824 27.2637 26.3769 27.208C26.3151 27.1753 26.0898 27.1211 25.8763 27.0874C25.1113 26.9669 24.3419 27.2031 23.7441 27.742C23.431 28.0243 23.0938 28.5546 23.0137 28.8907L22.9746 29.055H19.6834H16.3923L16.2587 28.6936C15.8578 27.6091 14.6391 26.9052 13.477 27.0869C12.9712 27.166 12.5283 27.3636 12.1986 27.6575L11.9416 27.8865L11.7971 27.7208L11.6525 27.555V25.7366V23.9181H13.7374H15.8222L15.9477 23.7607C16.0168 23.6742 16.0733 23.5575 16.0733 23.5014C16.0733 23.4453 15.4845 22.3821 14.7649 21.1386C14.0453 19.8951 13.4429 18.8426 13.4261 18.7996C13.4023 18.7385 13.5282 18.7215 14.005 18.7215C14.34 18.7215 14.6805 18.6916 14.7618 18.6552C14.9361 18.5768 15.0623 18.3355 15.0115 18.1777C14.9916 18.116 14.6366 17.4807 14.2225 16.7659C13.8084 16.0511 13.4716 15.4258 13.474 15.3766C13.4764 15.3273 13.6213 15.0585 13.7961 14.7793C14.0949 14.3018 14.1263 14.2715 14.3214 14.2715C14.5107 14.2715 14.5512 14.3057 14.7806 14.6598C15.1506 15.2308 15.346 15.4417 15.618 15.5636C16.0355 15.7507 16.5042 15.6893 16.906 15.3951C17.1537 15.2137 17.2454 15.0376 17.5355 14.1857C17.7956 13.422 17.822 13.1727 17.6581 13.0265C17.515 12.8986 17.1429 12.8979 17.0344 13.0252C16.9888 13.0789 16.8287 13.4751 16.6788 13.9057C16.4355 14.6048 16.3882 14.6948 16.2366 14.7466C15.996 14.8288 15.907 14.7544 15.5691 14.1889C15.2006 13.572 14.9477 13.3904 14.4103 13.3566C13.8298 13.3202 13.5097 13.5158 13.1236 14.1427L12.9084 14.492L12.7357 14.2026C12.6407 14.0434 12.5625 13.893 12.5619 13.8684C12.5614 13.8438 12.6711 13.8236 12.8059 13.8236C13.1255 13.8236 13.3781 13.598 13.3291 13.3563C13.2825 13.1264 10.4624 8.26558 10.2821 8.10431C10.1137 7.95367 9.91845 7.93449 9.76021 8.053C9.6394 8.14343 6.62621 13.2133 6.62621 13.3261C6.62621 13.6122 6.89618 13.8236 7.26159 13.8236H7.46742L7.09748 14.454L6.72759 15.0845L6.44405 14.5884C6.28818 14.3156 6.10281 14.0319 6.0322 13.958C5.87414 13.7925 5.53568 13.7764 5.40276 13.9281C5.31126 14.0325 3.46127 17.1449 3.22503 17.5919C3.11833 17.7939 3.11082 17.8533 3.1732 18.0019C3.2165 18.1049 3.32568 18.2076 3.44183 18.2544L3.6375 18.3333L2.77085 19.7967C2.29414 20.6015 1.90384 21.3169 1.90342 21.3864C1.90299 21.4559 1.95919 21.5836 2.02823 21.6701C2.1422 21.8131 2.19216 21.8275 2.57325 21.8275C2.80398 21.8275 2.99273 21.8485 2.99273 21.8741C2.99273 21.8997 2.59499 22.5918 2.10883 23.4122C1.62273 24.2325 1.19907 24.9691 1.16746 25.0491C1.09127 25.2416 1.19919 25.4949 1.39491 25.5828C1.49156 25.6263 2.00764 25.6503 2.84419 25.6503H4.14334V26.0983C4.14334 26.6255 4.24786 26.7852 4.5931 26.7852C4.91733 26.7852 5.05171 26.5723 5.05171 26.0583V25.6463L5.7027 25.6632L6.3537 25.6802L6.37036 26.6953L6.38707 27.7104L6.20037 28.0732C6.09772 28.2727 5.97951 28.5685 5.93773 28.7305L5.86173 29.0251L5.45672 29.0428L5.05171 29.0604V28.5581C5.05171 27.9473 4.93592 27.7409 4.5931 27.7409C4.22666 27.7409 4.14334 27.8904 4.14334 28.5473V29.1147H2.69437H1.24533L1.11986 29.2721C0.963376 29.4683 0.960106 29.6571 1.11011 29.8398L1.22583 29.9808L16.3859 29.9964C27.1274 30.0075 31.5921 29.9932 31.7045 29.9476C31.8573 29.8856 32 29.673 32 29.5075C32 29.4637 31.7411 28.7253 31.4247 27.8666C31.1083 27.0079 30.8494 26.2954 30.8494 26.2832C30.8494 26.271 31.0382 26.2506 31.2689 26.2377C31.5696 26.221 31.7239 26.1826 31.8139 26.1022C32.0585 25.8839 31.9893 25.6896 31.1559 24.2531L30.3724 22.9027H30.7018C31.1435 22.9027 31.3224 22.7354 31.2766 22.3651C31.2705 22.3158 30.9517 21.7305 30.5682 21.0645L29.871 19.8534L30.0574 19.6816C30.1599 19.5871 30.2438 19.4499 30.2438 19.3768C30.2438 19.1957 28.4589 16.1059 28.2321 15.8943C27.9438 15.6255 27.6701 15.7483 27.3774 16.2779C27.2864 16.4425 27.2567 16.4618 27.2131 16.3849C27.156 16.2842 26.3076 13.9755 26.3076 13.9207C26.3076 13.9028 27.1778 13.8802 28.2415 13.8707L30.1754 13.8534L30.36 13.679C30.6301 13.4237 30.7477 13.0699 30.7176 12.6039C30.6857 12.1097 30.4629 11.7783 30.0015 11.5388C29.6942 11.3794 29.6565 11.3746 28.7078 11.3743L27.7307 11.3742L27.6154 11.0977C27.4582 10.7208 26.9056 10.1809 26.4589 9.96792C26.1296 9.81083 26.0336 9.7941 25.4317 9.78861L24.7679 9.78251L23.6299 6.68647C22.9749 4.90416 22.4286 3.50836 22.3425 3.39702C22.0096 2.9666 21.2517 2.81739 20.7723 3.08785ZM21.5962 3.92875C21.641 3.97283 22.1628 5.32646 22.7559 6.93663L23.8342 9.86435L23.4457 10.6289L23.0572 11.3934L22.3358 10.0251C21.321 8.10061 21.3279 8.10204 20.3033 9.60231L19.6584 10.5465L19.3543 10.1758L19.0502 9.80509L20.0448 6.9073C20.5918 5.31349 21.07 3.97325 21.1072 3.92899C21.1945 3.82523 21.4911 3.82511 21.5962 3.92875ZM11.0735 11.1655L12.0766 12.8977L11.7957 12.9312C11.4876 12.968 11.2892 13.1407 11.2892 13.372C11.2892 13.4449 11.8475 14.47 12.5298 15.6501L13.7704 17.7957L13.0395 17.8255C12.2404 17.8582 12.137 17.9063 12.137 18.2455C12.137 18.3418 12.636 19.2655 13.4137 20.6084C14.1158 21.821 14.7165 22.8604 14.7484 22.9182C14.8035 23.018 14.6592 23.0225 11.9157 23.0078L9.02497 22.9923L8.71013 22.4547L8.39523 21.9171L8.82174 21.8828C9.29464 21.8447 9.47274 21.7173 9.47207 21.4177C9.47189 21.3251 9.1229 20.6572 8.62662 19.7992L7.78148 18.3385L7.95607 18.2661C8.14131 18.1892 8.26146 18.0231 8.26104 17.8444C8.26091 17.7847 8.03249 17.3418 7.7535 16.8602L7.24621 15.9844L7.7905 15.0682C8.70226 13.5336 8.74974 13.4347 8.67586 13.2255C8.59677 13.0017 8.46324 12.9276 8.13907 12.9276C8.00088 12.9276 7.8969 12.9059 7.90804 12.8793C8.0231 12.6039 9.99457 9.35723 10.027 9.38972C10.0508 9.41373 10.5217 10.2128 11.0735 11.1655ZM26.1195 10.8152C26.4982 11.0013 26.7555 11.3219 26.8886 11.7734C27.0326 12.262 27.0587 12.2706 28.3997 12.2706C29.5413 12.2706 29.5584 12.2725 29.6926 12.4134C29.7902 12.5159 29.8231 12.6128 29.8091 12.7568L29.7896 12.9575L27.8722 12.9732L25.9549 12.989L25.8583 12.7343C25.3995 11.5248 25.1175 10.7167 25.1446 10.6899C25.2415 10.5943 25.822 10.669 26.1195 10.8152ZM6.37284 16.2792C6.71644 16.8735 6.98896 17.365 6.97842 17.3715C6.96788 17.3779 6.88377 17.4153 6.79154 17.4543C6.6029 17.5343 6.48215 17.7797 6.54125 17.9632C6.56281 18.0302 6.94499 18.7107 7.39058 19.4754C7.83616 20.2401 8.20072 20.894 8.20072 20.9285C8.20072 20.9663 8.03564 20.9913 7.7862 20.9913C7.31688 20.9913 7.15107 21.0982 7.15107 21.4006C7.15107 21.5089 7.47929 22.1357 8.06555 23.147L8.9801 24.7245L7.35327 24.7404C6.45847 24.7491 4.97462 24.7491 4.05571 24.7404L2.38504 24.7245L3.32326 23.1416C3.87979 22.2026 4.26203 21.4946 4.26294 21.4011C4.26379 21.3144 4.21322 21.1811 4.1506 21.1048C4.0551 20.9885 3.96687 20.9623 3.60286 20.942C3.36426 20.9286 3.17701 20.8985 3.18682 20.8751C3.19663 20.8515 3.57942 20.1999 4.03736 19.4268C4.87863 18.0068 4.96426 17.7963 4.79427 17.567C4.75261 17.5108 4.64554 17.4452 4.55634 17.4212L4.39411 17.3776L5.03548 16.2875C5.38817 15.6879 5.69283 15.1977 5.71245 15.1981C5.73207 15.1985 6.02923 15.685 6.37284 16.2792ZM28.7899 19.0206C28.6857 19.1167 28.6088 19.2486 28.6088 19.3315C28.6088 19.4107 28.9336 20.0383 29.3307 20.7262L30.0528 21.9769L29.7395 21.9954C29.3677 22.0175 29.1538 22.1783 29.1538 22.4358C29.1538 22.5433 29.4403 23.0996 29.939 23.9605C30.3709 24.7059 30.7182 25.3217 30.711 25.329C30.7036 25.3361 29.4523 25.3241 27.9303 25.3021L25.163 25.2621L25.9447 23.948C26.7462 22.6007 26.826 22.3961 26.6456 22.1528C26.5825 22.0676 26.4622 22.0291 26.1894 22.007L25.8189 21.9769L26.5477 20.7401C27.3909 19.3091 27.4296 19.1512 26.9956 18.9116C26.9154 18.8674 26.9274 18.8189 27.0811 18.5668C27.1794 18.4055 27.416 18.0087 27.6069 17.685L27.9539 17.0964L28.4625 17.9751L28.9711 18.8537L28.7899 19.0206ZM10.7442 25.3218C10.7442 26.0938 10.7328 26.7255 10.7189 26.7255C10.705 26.7255 10.5619 26.6689 10.401 26.5996C10.24 26.5304 9.91754 26.4414 9.68439 26.4017L9.26048 26.3297L9.24232 25.99L9.22415 25.6503H9.61644C9.96804 25.6503 10.0216 25.634 10.1342 25.4929C10.2032 25.4064 10.2597 25.2919 10.2597 25.2387C10.2597 25.1854 10.1098 24.8794 9.92662 24.5587C9.74343 24.2379 9.59355 23.9626 9.59355 23.9468C9.59355 23.931 9.85244 23.9181 10.1689 23.9181H10.7442V25.3218ZM8.32184 26.0339V26.4176L8.09474 26.4901C7.96987 26.53 7.73818 26.6266 7.58 26.7048L7.29235 26.847V26.2486V25.6503H7.80709H8.32184V26.0339ZM28.4271 27.6214V29.055H28.223C28.0332 29.055 28.0137 29.0365 27.9435 28.7894C27.902 28.6433 27.7631 28.3678 27.6346 28.1772L27.401 27.8305L27.3993 27.049C27.3984 26.6192 27.4158 26.2496 27.438 26.2277C27.4602 26.2058 27.6918 26.1879 27.9527 26.1879H28.4271V27.6214ZM30.3768 27.6513L30.8931 29.055H30.1143H29.3355V27.6513V26.2476H29.598H29.8605L30.3768 27.6513ZM10.1514 27.4889C10.7277 27.769 11.1805 28.2983 11.3762 28.9206L11.4185 29.055H9.11315C7.309 29.055 6.80801 29.0387 6.80849 28.9803C6.80989 28.8014 7.12781 28.2553 7.39397 27.9746C7.66127 27.6928 8.07258 27.4347 8.44295 27.3164C8.52622 27.2898 8.85396 27.2736 9.17128 27.2805C9.68718 27.2916 9.79091 27.3137 10.1514 27.4889ZM14.187 27.9835C14.6033 28.0716 15.0122 28.3446 15.2262 28.6776C15.3257 28.8323 15.4071 28.9805 15.4071 29.007C15.4071 29.0334 14.7122 29.055 13.8629 29.055C12.825 29.055 12.3187 29.0344 12.3187 28.9923C12.3187 28.8711 12.492 28.6051 12.692 28.4196C12.9943 28.139 13.2913 28.012 13.8448 27.9267C13.8681 27.923 14.0221 27.9487 14.187 27.9835ZM26.1864 28.1073C26.5161 28.2495 26.8222 28.5286 26.9802 28.831L27.0973 29.055H25.5215C24.2391 29.055 23.9458 29.04 23.9458 28.9744C23.9458 28.8331 24.2996 28.4059 24.5542 28.2397C25.0588 27.9103 25.6237 27.8645 26.1864 28.1073Z" fill="#63AFCD" stroke="#63AFCD" stroke-width="0.5"/>
</svg>
