<svg width="34" height="34" viewBox="0 0 34 34" fill="none" xmlns="http://www.w3.org/2000/svg">
<path fill-rule="evenodd" clip-rule="evenodd" d="M15.6548 0.482321C15.4491 0.56831 15.1752 0.712331 15.046 0.802296C14.9168 0.892261 11.6779 4.10464 7.84831 7.94094C2.22909 13.57 0.853239 14.9808 0.718537 15.2516C0.101485 16.4924 0.306293 17.8538 1.25254 18.8006C1.84005 19.3885 2.5902 19.6932 3.44993 19.6932H3.88505V24.8199C3.88505 28.2906 3.90774 30.0563 3.95535 30.2864C4.19726 31.4556 5.14255 32.5117 6.30802 32.9146C6.73314 33.0617 6.76287 33.0629 9.85602 33.0629C12.9065 33.0629 12.9792 33.06 13.1523 32.9307C13.2496 32.858 13.3888 32.7188 13.4614 32.6215C13.591 32.4479 13.5942 32.3617 13.6256 28.1637L13.6577 23.883L13.8522 23.5675C14.0946 23.1744 14.5897 22.86 15.0584 22.8018C15.2396 22.7793 16.1377 22.7703 17.054 22.782L18.7202 22.8032L19.0569 22.9898C19.3778 23.1678 19.585 23.3797 19.7836 23.733C19.8575 23.8645 19.8794 24.6587 19.9057 28.1689C19.9371 32.3617 19.9403 32.4479 20.0699 32.6215C20.1426 32.7188 20.2817 32.858 20.379 32.9307C20.5521 33.06 20.6248 33.0629 23.6753 33.0629C26.7684 33.0629 26.7982 33.0617 27.2233 32.9146C28.3888 32.5117 29.3341 31.4556 29.576 30.2864C29.6236 30.0563 29.6463 28.2906 29.6463 24.8199V19.6932H30.0814C31.2865 19.6932 32.3368 19.0502 32.8549 17.9953C33.0724 17.5524 33.0747 17.5387 33.0747 16.6794C33.0747 15.217 33.8115 16.0853 25.5855 7.85399C17.4062 -0.330505 18.2256 0.372606 16.8316 0.342981C16.1034 0.327463 15.9939 0.340416 15.6548 0.482321ZM17.2421 2.31426C17.4188 2.40025 19.6908 4.63327 24.3043 9.2556C29.8519 14.8137 31.1206 16.116 31.1846 16.3182C31.3384 16.8034 31.1338 17.3601 30.7066 17.6191C30.5445 17.7174 30.33 17.7429 29.4425 17.7695C28.2791 17.8044 28.1965 17.8295 27.888 18.243C27.7574 18.418 27.7554 18.4871 27.7238 24.2346L27.6917 30.0491L27.5141 30.3515C27.4164 30.5178 27.2414 30.7265 27.1252 30.8151C26.6791 31.1556 26.5461 31.1713 24.095 31.1713H21.8282V27.5835C21.8282 25.2295 21.804 23.8789 21.7579 23.6559C21.509 22.4529 20.5373 21.4126 19.2969 21.0211C18.8726 20.8872 18.7356 20.8795 16.7657 20.8795C14.9264 20.8795 14.6384 20.8933 14.3018 20.9971C13.028 21.3905 12.1265 22.3072 11.7977 23.5435C11.7216 23.8295 11.7045 24.5567 11.7039 27.5323L11.7031 31.1713H9.43627C6.98518 31.1713 6.85227 31.1556 6.40613 30.8151C6.28995 30.7265 6.11494 30.5178 6.01721 30.3515L5.83957 30.0491L5.80753 24.2346C5.77587 18.4872 5.77395 18.418 5.64335 18.243C5.33479 17.8295 5.25225 17.8044 4.08883 17.7695C2.85101 17.7324 2.6537 17.6616 2.4157 17.1698C2.25774 16.8432 2.24761 16.5685 2.38155 16.2445C2.51413 15.9238 15.9132 2.49957 16.285 2.3149C16.6101 2.15356 16.9112 2.15337 17.2421 2.31426Z" fill="#63AFCD"/>
</svg>
