<svg width="30" height="31" viewBox="0 0 30 31" fill="none" xmlns="http://www.w3.org/2000/svg">
<path fill-rule="evenodd" clip-rule="evenodd" d="M10.9953 0.97504C10.4753 1.24072 10.4564 1.93242 10.96 2.26426C11.0989 2.35577 11.3172 2.37624 12.43 2.40219C13.1488 2.41894 13.7738 2.45653 13.8189 2.48577C14.0518 2.63668 14.0705 2.863 14.0705 5.5377V8.12882H13.0697H12.0689V6.63021C12.0689 4.98246 12.0425 4.83576 11.7099 4.63838C11.463 4.49186 11.092 4.50459 10.8871 4.66652C10.5798 4.90929 10.5526 5.07122 10.5526 6.66079V8.12096L9.08179 8.14015C6.99333 8.16732 7.09541 8.06162 7.09541 10.1971V11.6623H5.63392C4.38994 11.6623 4.14751 11.6771 4.00455 11.7619C3.5237 12.0472 3.5237 12.7395 4.00455 13.0247C4.14751 13.1096 4.38994 13.1244 5.63392 13.1244H7.09541V14.1272V15.1301L4.34948 15.1477L1.60349 15.1653L1.1987 15.3655C0.71038 15.6071 0.358291 15.9857 0.175302 16.4661C0.0649143 16.756 0.0394401 16.9792 0.0137234 17.8836C-0.0266107 19.2994 0.0112973 19.5918 0.272528 19.878C0.448785 20.0711 0.509317 20.0992 0.739979 20.0944C1.02535 20.0884 1.29398 19.9471 1.41171 19.741C1.45999 19.6563 1.49541 19.1586 1.51536 18.2821L1.54569 16.9516L1.71588 16.8047L1.88607 16.6578H4.49074H7.09541V17.6287V18.5995L5.62458 18.6187C4.2989 18.6359 4.13702 18.6492 3.98387 18.7534C3.51969 19.0695 3.53837 19.7159 4.02026 20.011C4.1984 20.1201 4.33317 20.1299 5.65491 20.1301L7.09541 20.1304V21.5335C7.09541 23.6735 6.98927 23.5616 9.05771 23.6029L10.5829 23.6334L10.6133 25.1767L10.6436 26.7201L10.8402 26.8965C11.1868 27.2073 11.4954 27.2073 11.842 26.8965L12.0386 26.7201L12.0689 25.1767L12.0993 23.6334L13.0849 23.6166L14.0705 23.5998V26.1876C14.0705 28.8378 14.0963 29.2016 14.3156 29.6372C14.4797 29.9632 14.9095 30.365 15.2835 30.5422C15.608 30.6959 15.6555 30.7008 17.0226 30.7195C18.5875 30.7409 18.6993 30.719 18.9251 30.347C19.0676 30.1123 19.0748 29.931 18.952 29.6711C18.7672 29.2799 18.6182 29.2417 17.145 29.2077L15.8222 29.1772L15.7059 29.0249C15.5953 28.8802 15.5894 28.7404 15.5881 26.2378L15.5868 23.6029H16.5572H17.5277L17.528 24.9584C17.5282 25.704 17.5563 26.415 17.5905 26.5385C17.6617 26.796 17.9275 27.0469 18.1906 27.1049C18.4342 27.1587 18.7669 26.9935 18.9217 26.7419C19.0354 26.557 19.044 26.4407 19.044 25.0731V23.6029H20.5027C22.6201 23.6029 22.5012 23.7206 22.5012 21.6251V20.1304H24.0195C25.7128 20.1304 25.8663 20.1022 26.0781 19.7533C26.2337 19.497 26.2337 19.2407 26.0781 18.9844C25.8663 18.6355 25.7128 18.6073 24.0195 18.6073H22.5012V17.6038V16.6003L25.3974 16.5834L28.2935 16.5665L28.6271 16.4073C29.2659 16.1025 29.671 15.5322 29.7783 14.7866C29.845 14.3228 29.8596 12.6719 29.8001 12.3101C29.7423 11.9587 29.424 11.6623 29.1045 11.6623C28.8114 11.6623 28.5594 11.7983 28.4231 12.0302C28.3401 12.1713 28.3239 12.3994 28.3239 13.4262C28.3239 14.7621 28.2907 14.9253 27.992 15.062C27.8764 15.1149 27.1047 15.1348 25.1671 15.1348H22.5012V14.1324V13.13L24.1377 13.112L25.7743 13.0939L25.9619 12.9055C26.2136 12.6524 26.265 12.2978 26.0906 12.0166C25.8548 11.6364 25.8415 11.6338 24.0933 11.6121L22.5012 11.5924L22.501 10.1499C22.5007 8.04998 22.5797 8.12882 20.4724 8.12882H19.044L19.0436 6.71239C19.0434 5.93339 19.0154 5.19489 18.9812 5.07141C18.8107 4.45482 17.9994 4.33468 17.6457 4.87359C17.5376 5.03833 17.5285 5.1726 17.5281 6.59055L17.5277 8.12882H16.5287H15.5296L15.5127 5.28073L15.4958 2.43265L15.335 2.08814C15.1351 1.65974 14.7492 1.27459 14.3131 1.06813C13.9885 0.914483 13.942 0.909793 12.5845 0.893039C11.3924 0.878357 11.1612 0.890298 10.9953 0.97504ZM20.9849 15.8963V22.1408H14.7983H8.61173V15.8963V9.65186H14.7983H20.9849V15.8963ZM10.7527 11.538C10.3565 11.7806 10.3706 11.6191 10.3711 15.9085C10.3714 19.6479 10.3759 19.8021 10.4887 19.974C10.7161 20.3204 10.5638 20.3086 14.8418 20.311L18.7973 20.3131L19.0117 20.0979L19.226 19.8826V15.9189C19.226 12.2922 19.2172 11.9403 19.1225 11.7792C18.9057 11.4107 19.001 11.4186 14.7891 11.4188C11.0853 11.419 10.9399 11.4233 10.7527 11.538ZM17.7703 15.8963V18.851H14.7983H11.8263V15.8963V12.9416H14.7983H17.7703V15.8963Z" fill="#63AFCD"/>
</svg>
