<svg width="31" height="31" viewBox="0 0 31 31" fill="none" xmlns="http://www.w3.org/2000/svg">
<path fill-rule="evenodd" clip-rule="evenodd" d="M4.19898 0.937482C2.43843 1.17072 1.01274 2.39423 0.480694 4.12863C0.336857 4.59733 0.329282 5.18289 0.329282 15.807C0.329282 27.9377 0.305817 27.307 0.793974 28.3069C1.27382 29.2901 2.12713 30.0461 3.2509 30.4838L3.78731 30.6928L15.0057 30.7151C27.3634 30.7396 26.7519 30.7627 27.8072 30.2306C28.455 29.9039 29.3086 29.0527 29.6613 28.3815C30.2046 27.3476 30.1811 27.9572 30.1565 15.5812L30.1342 4.37536L29.9485 3.88849C29.4279 2.52302 28.5212 1.62256 27.1785 1.13725C26.5987 0.927695 26.5692 0.92564 23.6399 0.895786C22.0153 0.879255 20.554 0.89044 20.3927 0.920622C20.018 0.990857 18.9442 2.00515 18.8079 2.41775C18.6281 2.96211 19.0525 3.51182 19.6526 3.51182C19.9275 3.51182 20.0408 3.45038 20.411 3.10061L20.8463 2.6894H23.5729C26.1247 2.6894 26.3285 2.70026 26.753 2.8589C27.3297 3.07446 27.8953 3.61775 28.1844 4.2339L28.4051 4.70433L28.4293 9.82389L28.4533 14.9434H22.6412C17.8162 14.9434 16.7913 14.963 16.6067 15.0588C16.4844 15.1222 16.1343 15.4331 15.8286 15.7498C15.3551 16.2404 15.2729 16.3688 15.2729 16.6176C15.2729 17.0273 15.4135 17.2896 15.7223 17.4557C16.1299 17.675 16.4801 17.5692 16.9613 17.0812L17.3662 16.6705H18.5014H19.6366V18.9961C19.6366 21.0182 19.6543 21.3483 19.7722 21.525C19.9924 21.8555 20.6446 22.5063 20.9385 22.6889C21.4515 23.0078 22.128 22.7119 22.2392 22.1202C22.3063 21.7629 22.1989 21.5321 21.7349 21.0366L21.3626 20.639L21.3847 18.6753L21.4068 16.7117H24.906H28.4051V21.8125V26.9134L28.1358 27.4596C27.8274 28.0854 27.455 28.4465 26.8034 28.7518L26.3468 28.9657H23.8768H21.4068L21.3656 26.5529L21.3244 24.1401L21.0934 23.9417C20.6955 23.6 20.0387 23.7055 19.7737 24.1537C19.6545 24.3552 19.6366 24.688 19.6366 26.6969V29.0083L15.2523 28.987L10.868 28.9657L10.8269 26.5529L10.7857 24.1401L10.5547 23.9417C10.1567 23.6 9.49996 23.7055 9.23493 24.1537C9.11579 24.3552 9.09784 24.6884 9.09784 26.7026V29.0195L6.60724 28.9926L4.11664 28.9657L3.64569 28.7452C3.02885 28.4564 2.48495 27.8915 2.26915 27.3154C2.10448 26.8758 2.09946 26.7113 2.09946 21.7664V16.6705H5.59865H9.09784V18.9812C9.09784 20.9894 9.11579 21.3221 9.23493 21.5236C9.49996 21.9718 10.1567 22.0774 10.5547 21.7356L10.7857 21.5373L10.8269 19.1245L10.868 16.7117L12.35 16.6696C13.1651 16.6465 13.8922 16.5981 13.9658 16.562C14.0393 16.5259 14.1649 16.375 14.2449 16.2265C14.4311 15.8813 14.36 15.4538 14.0714 15.1828C13.8665 14.9903 13.8162 14.9838 12.3436 14.9589L10.8269 14.9333V12.6315C10.8269 10.7928 10.8031 10.2839 10.7087 10.1015C10.5271 9.75061 9.55175 8.87992 9.27157 8.8184C8.71137 8.69553 8.11173 9.29129 8.23432 9.84897C8.2638 9.98294 8.47013 10.2918 8.69284 10.5352L9.09784 10.9777V12.9606V14.9434H5.59865H2.09946V9.89503C2.09946 3.99409 2.06488 4.27922 2.87801 3.46708C3.63433 2.71161 3.74276 2.6894 6.67846 2.6894H9.09784V4.95517C9.09784 7.49562 9.12172 7.62145 9.64553 7.84005C10.0054 7.99022 10.4135 7.88002 10.6609 7.56577C10.8185 7.36568 10.8269 7.23647 10.8269 5.02219V2.6894H13.9637C17.4547 2.6894 17.5296 2.67896 17.7777 2.15664C17.8491 2.00622 17.9076 1.83894 17.9076 1.78474C17.9076 1.73054 17.8491 1.56326 17.7777 1.41284C17.5141 0.858036 17.793 0.878762 10.7733 0.892414C7.29325 0.899158 4.33483 0.919471 4.19898 0.937482Z" fill="#63AFCD"/>
</svg>
