<svg width="22" height="22" viewBox="0 0 22 22" fill="none" xmlns="http://www.w3.org/2000/svg">
<path fill-rule="evenodd" clip-rule="evenodd" d="M4.51825 0.0281177C2.48193 0.350388 0.749062 1.8616 0.187724 3.80475C-0.0325383 4.56726 -0.0558709 5.37728 0.101428 6.80195C0.803417 13.1595 5.0081 18.5949 10.9996 20.8901C12.6025 21.5042 14.2461 21.854 16.1012 21.976C17.3592 22.0587 18.104 21.9346 19.0204 21.4896C20.6256 20.7102 21.7384 19.1794 21.9714 17.4302C22.0648 16.7292 21.922 15.7102 21.6539 15.1637C21.4013 14.6487 20.8772 14.1893 20.3502 14.0207C20.0918 13.9381 15.2195 13.1835 14.9444 13.1835C14.4258 13.1835 13.855 13.4377 13.4226 13.861C13.2753 14.0053 13.1159 14.1794 13.0685 14.2479L12.9822 14.3726L12.4863 14.1239C10.5337 13.1442 9.02381 11.6488 8.05603 9.73608C7.90244 9.43247 7.76371 9.14132 7.74777 9.08905C7.72395 9.01107 7.78089 8.93239 8.06385 8.65195C8.54899 8.17119 8.77226 7.66547 8.7706 7.05114C8.77025 6.92608 8.57411 5.65348 8.33471 4.22309C7.91874 1.73764 7.89244 1.60821 7.74174 1.30282C7.44086 0.693026 6.9167 0.291773 6.1888 0.113963C5.7665 0.0108088 4.90686 -0.0333815 4.51825 0.0281177ZM5.75606 1.16644C6.24561 1.24586 6.57126 1.45003 6.74521 1.78651C6.82884 1.94832 7.63329 6.72515 7.63438 7.06657C7.63556 7.42997 7.47883 7.71023 7.1097 8.00488C6.65646 8.36662 6.54281 8.57476 6.54281 9.04306C6.54281 9.24981 6.57611 9.37827 6.7026 9.65941C7.68157 11.8354 9.41098 13.7063 11.5458 14.8988C12.2496 15.292 12.6883 15.4695 12.9658 15.4735C13.4206 15.48 13.6445 15.3362 14.1333 14.7239C14.3248 14.4839 14.6634 14.32 14.9674 14.32C15.2979 14.32 19.8546 15.0428 20.0562 15.1272C20.287 15.2238 20.5573 15.4805 20.676 15.7159C20.8421 16.0451 20.889 16.3543 20.8633 16.9495C20.8349 17.6037 20.7104 18.0742 20.3966 18.7128C20.0474 19.4233 19.4085 20.0426 18.62 20.4345C17.8964 20.7941 17.3224 20.9017 16.337 20.8626C11.5023 20.6706 6.92059 18.168 4.06492 14.1595C2.5046 11.9694 1.52039 9.39331 1.21204 6.69268C1.1323 5.99394 1.10766 4.92572 1.16372 4.59462C1.44598 2.92702 2.7572 1.5402 4.38065 1.19223C4.7445 1.11425 5.36307 1.10267 5.75606 1.16644ZM12.9003 2.07569C12.5794 2.21901 12.5016 2.72954 12.7612 2.98917C12.8576 3.08564 12.9319 3.10277 13.4961 3.15876C13.8413 3.19303 14.281 3.25986 14.4733 3.30733C16.9376 3.91559 18.6942 6.0286 18.8497 8.5717C18.8701 8.90416 18.9002 9.06658 18.9595 9.16418C19.1663 9.50442 19.749 9.48278 19.9107 9.12887C19.9891 8.95731 19.9705 8.28903 19.8712 7.70761C19.6318 6.3072 18.9907 5.08543 17.9499 4.04655C16.9511 3.04958 15.8522 2.45277 14.4831 2.16381C14.0387 2.07001 13.0378 2.01428 12.9003 2.07569ZM11.912 5.55636C11.6928 5.67556 11.5944 6.03332 11.7161 6.26878C11.8332 6.49524 11.9338 6.54695 12.3411 6.59013C12.9001 6.64936 13.1985 6.73311 13.6617 6.9607C14.6346 7.43871 15.3306 8.48118 15.4008 9.56561C15.4387 10.1505 15.6164 10.3637 16.0368 10.3287C16.2791 10.3085 16.4331 10.189 16.5075 9.96367C16.6107 9.65067 16.4275 8.64068 16.1607 8.052C15.6943 7.02308 14.7423 6.12769 13.7166 5.75323C13.0375 5.50531 12.1783 5.41159 11.912 5.55636Z" fill="#63AFCD"/>
</svg>
